<svg width="50" height="50" viewBox="0 0 50 50" fill="none" xmlns="http://www.w3.org/2000/svg">
<g clip-path="url(#clip0_3031_20441)">
<path d="M10.95 0H39.05C45.0977 0 50 4.90234 50 10.95V39.05C50 45.0977 45.0977 50 39.05 50H10.95C4.90234 50 0 45.0977 0 39.05V10.95C0 4.90234 4.90234 0 10.95 0Z" fill="url(#paint0_linear_3031_20441)"/>
<path d="M16.0234 36.2909L16.0281 36.2925L14.3186 39.2534C13.6945 40.3343 12.3125 40.7046 11.2316 40.0806C10.151 39.4566 9.78047 38.0745 10.4045 36.9937L11.6639 34.8124L11.7848 34.603C12.0006 34.2929 12.5332 33.7573 13.5986 33.8581C13.5986 33.8581 16.1059 34.1302 16.2873 35.4333C16.2873 35.4333 16.3119 35.862 16.0234 36.2909ZM40.2701 28.7284H34.9393C34.5762 28.704 34.4178 28.5743 34.3553 28.4989L34.3514 28.4921L28.6449 18.6081L28.6375 18.613L28.2953 18.1224C27.7344 17.2646 26.8438 19.4583 26.8438 19.4583C25.7803 21.9028 26.9947 24.6819 27.418 25.522L35.3441 39.2505C35.968 40.3312 37.35 40.7017 38.4311 40.0775C39.5117 39.4534 39.8822 38.0714 39.258 36.9905L37.2762 33.5577C37.2377 33.4745 37.1709 33.2487 37.5773 33.2478H40.2701C41.5182 33.2478 42.5299 32.236 42.5299 30.988C42.5299 29.74 41.5182 28.7284 40.2701 28.7284ZM29.9158 31.8001C29.9158 31.8001 30.2004 33.2476 29.0994 33.2476H9.39258C8.14453 33.2476 7.13281 32.2358 7.13281 30.9878C7.13281 29.7398 8.14453 28.728 9.39258 28.728H14.459C15.277 28.6808 15.4707 28.2085 15.4707 28.2085L15.4754 28.2108L22.0887 16.7562L22.0867 16.7558C22.2072 16.5345 22.1068 16.3253 22.0895 16.2923L19.9053 12.5093C19.2813 11.4286 19.6516 10.0464 20.7324 9.42257C21.8133 8.79854 23.1953 9.16866 23.8193 10.2495L24.8322 12.004L25.8434 10.2526C26.4674 9.17198 27.8494 8.80147 28.9303 9.42569C30.0111 10.0497 30.3814 11.4316 29.7574 12.5124L20.5547 28.4519C20.5145 28.5489 20.5021 28.7013 20.8016 28.728H26.3023L26.3035 28.7817C26.3035 28.7817 29.4828 28.8312 29.9158 31.8001Z" fill="white"/>
</g>
<defs>
<linearGradient id="paint0_linear_3031_20441" x1="2500" y1="0" x2="2500" y2="5000" gradientUnits="userSpaceOnUse">
<stop stop-color="#17C9FB"/>
<stop offset="1" stop-color="#1A74E8"/>
</linearGradient>
<clipPath id="clip0_3031_20441">
<rect width="50" height="50" fill="white"/>
</clipPath>
</defs>
</svg>
