<svg width="12" height="13" viewBox="0 0 12 13" fill="none" xmlns="http://www.w3.org/2000/svg">
<path d="M10.7665 12.0778H1.94576C0.871701 12.0778 0 11.2061 0 10.1321V1.31127C0 1.09853 0.176416 0.922119 0.389152 0.922119C0.601889 0.922119 0.778304 1.09853 0.778304 1.31127V10.1321C0.778304 10.7755 1.30236 11.2995 1.94576 11.2995H10.7665C10.9793 11.2995 11.1557 11.4759 11.1557 11.6887C11.1557 11.9014 10.9793 12.0778 10.7665 12.0778Z" fill="#1C7E0C"/>
<path d="M1.94565 9.57839C1.85744 9.57839 1.76404 9.54726 1.6914 9.485C1.53055 9.3449 1.5098 9.10103 1.64989 8.93499L4.0315 6.15385C4.29094 5.85291 4.66451 5.67131 5.05885 5.65574C5.45319 5.64536 5.84235 5.79065 6.12254 6.07084L6.61546 6.56376C6.74518 6.69348 6.91122 6.75574 7.09801 6.75574C7.27961 6.75055 7.44565 6.66753 7.56499 6.52744L9.9466 3.74631C10.0867 3.58546 10.3306 3.56471 10.4966 3.7048C10.6575 3.84489 10.6782 4.08876 10.5381 4.2548L8.1565 7.03593C7.89707 7.33688 7.52348 7.51848 7.12914 7.53405C6.72961 7.54442 6.34565 7.39914 6.06546 7.11895L5.57772 6.62603C5.448 6.49631 5.27678 6.42885 5.09517 6.43404C4.91357 6.43923 4.74753 6.52225 4.62819 6.66235L2.24659 9.44349C2.16357 9.53169 2.05461 9.57839 1.94565 9.57839Z" fill="#1C7E0C"/>
<path d="M11.8457 5.24959L11.9391 3.86735L11.9985 3.02134C12.0227 2.66393 11.7517 2.35362 11.3943 2.32946L9.1637 2.17867C8.87089 2.15887 8.70262 2.50437 8.89333 2.72274L11.2702 5.44428C11.4629 5.66494 11.8259 5.54241 11.8457 5.24959Z" fill="#1C7E0C"/>
</svg>
