<svg width="564" height="1024" viewBox="0 0 564 1024" fill="none" xmlns="http://www.w3.org/2000/svg">
<rect width="564" height="1057" fill="#5347C2"/>
<path d="M399.137 634.548C414.804 618.36 427.047 598.987 435.089 577.655C443.131 556.323 446.797 533.498 445.855 510.626C444.914 487.753 439.385 465.332 429.619 444.783C419.853 424.234 406.062 406.004 389.121 391.25L380.078 402.335C395.533 415.796 408.114 432.427 417.023 451.174C425.933 469.921 430.977 490.375 431.836 511.242C432.695 532.108 429.35 552.932 422.014 572.393C414.677 591.854 403.508 609.528 389.215 624.296L399.137 634.548Z" fill="url(#paint0_linear_2125_12532)"/>
<path d="M167.055 640.947C182.722 657.134 201.473 669.784 222.118 678.093C242.764 686.402 264.855 690.191 286.992 689.218C309.128 688.245 330.828 682.532 350.716 672.441C370.605 662.351 388.248 648.102 402.528 630.598L391.799 621.254C378.771 637.223 362.675 650.222 344.531 659.427C326.387 668.633 306.591 673.845 286.395 674.732C266.2 675.62 246.047 672.164 227.212 664.583C208.376 657.003 191.271 645.463 176.977 630.695L167.055 640.947Z" fill="url(#paint1_linear_2125_12532)"/>
<path d="M162.058 400.956C146.391 417.144 134.149 436.517 126.107 457.849C118.065 479.181 114.398 502.006 115.34 524.879C116.281 547.751 121.81 570.172 131.577 590.721C141.343 611.27 155.133 629.5 172.074 644.255L181.118 633.169C165.662 619.709 153.081 603.078 144.172 584.331C135.262 565.584 130.218 545.129 129.359 524.263C128.5 503.396 131.845 482.573 139.182 463.112C146.518 443.651 157.687 425.976 171.98 411.208L162.058 400.956Z" fill="url(#paint2_linear_2125_12532)"/>
<path d="M395.137 395.588C379.47 379.4 360.72 366.75 340.074 358.441C319.428 350.132 297.337 346.344 275.201 347.316C253.064 348.289 231.364 354.002 211.476 364.093C191.588 374.183 173.945 388.432 159.665 405.936L170.396 415.283C183.424 399.314 199.519 386.316 217.662 377.11C235.806 367.904 255.602 362.693 275.797 361.805C295.992 360.918 316.145 364.374 334.98 371.954C353.814 379.535 370.92 391.074 385.212 405.842L395.137 395.588Z" fill="url(#paint3_linear_2125_12532)"/>
<path d="M174.18 399.676L158.048 422.583L149.654 412.339L174.18 399.676Z" fill="white"/>
<path d="M168.246 630.363L188.317 642.966L178.764 652.061L168.246 630.363Z" fill="white"/>
<path d="M407.065 614.916L415.271 592.178L425.713 600.162L407.065 614.916Z" fill="white"/>
<path d="M372.894 384.517L350.078 378.76L356.529 367.11L372.894 384.517Z" fill="white"/>
<line x1="121.394" y1="523.718" x2="28.9223" y2="523.718" stroke="#161577" stroke-width="8"/>
<path d="M27 509.252C32.9529 509.252 38 514.276 38 520.751C38 527.225 32.9529 532.249 27 532.249C21.0471 532.249 16 527.225 16 520.751C16 514.276 21.0471 509.252 27 509.252Z" fill="white" stroke="#161577" stroke-width="8"/>
<path d="M125.346 508.752C131.59 508.752 136.846 514.015 136.846 520.751C136.846 527.486 131.59 532.749 125.346 532.749C119.101 532.749 113.846 527.486 113.846 520.751C113.846 514.015 119.101 508.752 125.346 508.752Z" fill="white" stroke="#161577" stroke-width="7"/>
<line x1="532.394" y1="523.718" x2="439.922" y2="523.718" stroke="#161577" stroke-width="8"/>
<path d="M438 509.252C443.953 509.252 449 514.276 449 520.751C449 527.225 443.953 532.249 438 532.249C432.047 532.249 427 527.225 427 520.751C427 514.276 432.047 509.252 438 509.252Z" fill="white" stroke="#161577" stroke-width="8"/>
<path d="M536.346 508.752C542.59 508.752 547.846 514.015 547.846 520.751C547.846 527.486 542.59 532.749 536.346 532.749C530.101 532.749 524.846 527.486 524.846 520.751C524.846 514.015 530.101 508.752 536.346 508.752Z" fill="white" stroke="#161577" stroke-width="7"/>
<line x1="272" y1="348.607" x2="272" y2="253.062" stroke="#161577" stroke-width="8"/>
<path d="M286 251.076C286 257.551 280.953 262.575 275 262.575C269.047 262.575 264 257.551 264 251.076C264 244.601 269.047 239.578 275 239.578C280.953 239.578 286 244.601 286 251.076Z" fill="white" stroke="#161577" stroke-width="8"/>
<path d="M286.5 352.691C286.5 359.426 281.244 364.689 275 364.689C268.756 364.689 263.5 359.426 263.5 352.691C263.5 345.955 268.756 340.692 275 340.692C281.244 340.692 286.5 345.955 286.5 352.691Z" fill="white" stroke="#161577" stroke-width="7"/>
<line x1="272" y1="780.5" x2="272" y2="684.955" stroke="#161577" stroke-width="8"/>
<path d="M286 682.969C286 689.443 280.953 694.467 275 694.467C269.047 694.467 264 689.443 264 682.969C264 676.494 269.047 671.47 275 671.47C280.953 671.47 286 676.494 286 682.969Z" fill="white" stroke="#161577" stroke-width="8"/>
<path d="M286.5 784.583C286.5 791.319 281.244 796.582 275 796.582C268.756 796.582 263.5 791.319 263.5 784.583C263.5 777.848 268.756 772.585 275 772.585C281.244 772.585 286.5 777.848 286.5 784.583Z" fill="white" stroke="#161577" stroke-width="7"/>
<path d="M420.75 516.359C420.75 596.962 357.51 662.304 279.5 662.304C201.49 662.304 138.25 596.962 138.25 516.359C138.25 435.757 201.49 370.415 279.5 370.415C357.51 370.415 420.75 435.757 420.75 516.359ZM142.221 516.359C142.221 594.696 203.683 658.201 279.5 658.201C355.317 658.201 416.779 594.696 416.779 516.359C416.779 438.023 355.317 374.518 279.5 374.518C203.683 374.518 142.221 438.023 142.221 516.359Z" fill="#FF9900" fill-opacity="0.11"/>
<g filter="url(#filter0_d_2125_12532)">
<rect width="75.5425" height="112.931" rx="15.3521" transform="matrix(0.682242 -0.731126 0.705237 0.708972 222 497.456)" fill="#E686A6"/>
</g>
<g filter="url(#filter1_d_2125_12532)">
<rect width="74.2537" height="106.829" rx="15.3521" transform="matrix(0.999943 0.0106498 -0.0143735 0.999897 261.698 455.457)" fill="#6454D6"/>
</g>
<g filter="url(#filter2_d_2125_12532)">
<rect width="74.2906" height="106.776" rx="15.3521" transform="matrix(0.992079 0.125617 -0.12215 0.992512 275.697 459.849)" fill="#322B99"/>
</g>
<g filter="url(#filter3_d_2125_12532)">
<rect width="74.4032" height="106.621" rx="15.3521" transform="matrix(0.967717 0.25204 -0.241298 0.970451 286.932 468.531)" fill="#FF9900"/>
</g>
<ellipse cx="104.42" cy="505.509" rx="4.42017" ry="4.05963" fill="#A2A2A2"/>
<path d="M458.475 519.197C458.475 620.924 378.661 703.39 280.207 703.39C181.753 703.39 101.939 620.924 101.939 519.197C101.939 417.471 181.753 335.005 280.207 335.005C378.661 335.005 458.475 417.471 458.475 519.197ZM106.952 519.197C106.952 618.064 184.521 698.211 280.207 698.211C375.893 698.211 453.462 618.064 453.462 519.197C453.462 420.331 375.893 340.184 280.207 340.184C184.521 340.184 106.952 420.331 106.952 519.197Z" fill="url(#paint4_linear_2125_12532)" fill-opacity="0.18"/>
<ellipse cx="145.247" cy="396.402" rx="4.53222" ry="4.16254" fill="#A2A2A2"/>
<ellipse cx="105.968" cy="534.807" rx="4.53223" ry="4.16254" fill="#A2A2A2"/>
<ellipse cx="157.333" cy="650.317" rx="4.53223" ry="4.16254" fill="#A2A2A2"/>
<ellipse cx="256.034" cy="699.227" rx="4.53223" ry="4.16254" fill="#A2A2A2"/>
<ellipse cx="290.278" cy="700.268" rx="4.53223" ry="4.16254" fill="#A2A2A2"/>
<ellipse cx="427.252" cy="619.098" rx="4.53223" ry="4.16254" fill="#A2A2A2"/>
<ellipse cx="454.445" cy="537.929" rx="4.53223" ry="4.16254" fill="#A2A2A2"/>
<ellipse cx="457.468" cy="507.75" rx="4.53223" ry="4.16254" fill="#A2A2A2"/>
<ellipse cx="372.865" cy="365.183" rx="4.53223" ry="4.16254" fill="#A2A2A2"/>
<path d="M59.5322 324.081C58.762 324.081 58.0693 324.001 57.4541 323.842C56.8389 323.682 56.2305 323.395 55.6289 322.98V320.485H57.3174L57.5293 321.859C57.7025 322.028 57.9714 322.167 58.3359 322.276C58.7005 322.386 59.0993 322.44 59.5322 322.44C59.8649 322.44 60.1452 322.397 60.373 322.31C60.6009 322.219 60.7741 322.092 60.8926 321.928C61.0111 321.759 61.0703 321.561 61.0703 321.333C61.0703 321.114 61.0156 320.921 60.9062 320.752C60.8014 320.579 60.626 320.419 60.3799 320.273C60.1338 320.128 59.8011 319.984 59.3818 319.843C58.5615 319.592 57.8848 319.328 57.3516 319.05C56.8229 318.767 56.4264 318.435 56.1621 318.052C55.9023 317.664 55.7725 317.19 55.7725 316.63C55.7725 316.088 55.9251 315.611 56.2305 315.201C56.5404 314.786 56.9642 314.461 57.502 314.224C58.0397 313.987 58.6595 313.864 59.3613 313.854C60.1497 313.836 60.847 313.921 61.4531 314.107C62.0592 314.294 62.5879 314.563 63.0391 314.914V317.231H61.4121L61.1387 315.885C60.9746 315.789 60.7467 315.705 60.4551 315.632C60.168 315.559 59.849 315.522 59.498 315.522C59.1973 315.522 58.9307 315.566 58.6982 315.652C58.4704 315.734 58.2881 315.86 58.1514 316.028C58.0192 316.192 57.9531 316.395 57.9531 316.637C57.9531 316.833 58.0101 317.008 58.124 317.163C58.238 317.318 58.4339 317.468 58.7119 317.614C58.9899 317.755 59.375 317.913 59.8672 318.086C60.9792 318.405 61.8223 318.815 62.3965 319.316C62.9753 319.818 63.2646 320.485 63.2646 321.319C63.2646 321.898 63.1074 322.395 62.793 322.81C62.4831 323.22 62.0479 323.534 61.4873 323.753C60.9268 323.972 60.2751 324.081 59.5322 324.081ZM67.5371 324.081C66.8171 324.081 66.195 323.921 65.6709 323.602C65.1514 323.279 64.7503 322.837 64.4678 322.276C64.1898 321.711 64.0508 321.066 64.0508 320.342V320.157C64.0508 319.423 64.1943 318.774 64.4814 318.209C64.7686 317.644 65.1719 317.202 65.6914 316.883C66.2109 316.564 66.8216 316.404 67.5234 316.404C68.207 316.404 68.7949 316.509 69.2871 316.719C69.7793 316.928 70.1735 317.161 70.4697 317.416L70.4424 319.638H68.8018L68.5283 318.305C68.4372 318.213 68.3164 318.138 68.166 318.079C68.0156 318.02 67.8743 317.99 67.7422 317.99C67.3867 317.99 67.0973 318.074 66.874 318.243C66.6553 318.407 66.4935 318.649 66.3887 318.968C66.2884 319.287 66.2383 319.683 66.2383 320.157V320.342C66.2383 320.838 66.2998 321.24 66.4229 321.545C66.5459 321.846 66.7077 322.067 66.9082 322.208C67.1133 322.345 67.3298 322.413 67.5576 322.413C67.8812 322.413 68.1341 322.331 68.3164 322.167C68.5033 321.998 68.6377 321.759 68.7197 321.449H70.5723L70.5996 321.49C70.5039 322.046 70.3398 322.518 70.1074 322.905C69.8796 323.288 69.5583 323.58 69.1436 323.78C68.7288 323.981 68.1934 324.081 67.5371 324.081ZM73.9219 324.081C73.1927 324.081 72.6071 323.883 72.165 323.486C71.7275 323.085 71.5088 322.545 71.5088 321.866C71.5088 321.406 71.6318 320.998 71.8779 320.643C72.1286 320.287 72.5023 320.009 72.999 319.809C73.4958 319.608 74.1133 319.508 74.8516 319.508H75.7334V319.016C75.7334 318.687 75.6377 318.416 75.4463 318.202C75.2594 317.988 74.9723 317.881 74.585 317.881C74.3981 317.881 74.2272 317.904 74.0723 317.949C73.9219 317.995 73.7829 318.061 73.6553 318.147L73.498 319.104H71.9395L71.9121 317.122C72.3132 316.917 72.7415 316.746 73.1973 316.609C73.653 316.473 74.1589 316.404 74.7148 316.404C75.7038 316.404 76.4854 316.632 77.0596 317.088C77.6338 317.544 77.9209 318.193 77.9209 319.036V321.935C77.9209 322.039 77.9209 322.142 77.9209 322.242C77.9255 322.338 77.9368 322.431 77.9551 322.522L78.7344 322.645V323.937H76.1094C76.0547 323.833 75.9977 323.71 75.9385 323.568C75.8792 323.427 75.8382 323.286 75.8154 323.144C75.583 323.432 75.3164 323.659 75.0156 323.828C74.7148 323.997 74.3503 324.081 73.9219 324.081ZM74.5508 322.502C74.7786 322.502 74.9997 322.452 75.2139 322.352C75.4281 322.251 75.6012 322.115 75.7334 321.941V320.82H74.8652C74.4824 320.82 74.1885 320.907 73.9834 321.08C73.7829 321.253 73.6826 321.467 73.6826 321.723C73.6826 321.969 73.7601 322.16 73.915 322.297C74.0745 322.434 74.2865 322.502 74.5508 322.502ZM79.2471 323.937V322.645L80.1631 322.434V318.052L79.1172 317.84V316.541H82.2139L82.3027 317.587C82.5488 317.213 82.8519 316.924 83.2119 316.719C83.5719 316.509 83.9821 316.404 84.4424 316.404C85.1533 316.404 85.7139 316.639 86.124 317.108C86.5342 317.578 86.7393 318.318 86.7393 319.33V322.434L87.6484 322.645V323.937H83.7588V322.645L84.5449 322.434V319.33C84.5449 318.883 84.4538 318.567 84.2715 318.38C84.0938 318.188 83.834 318.093 83.4922 318.093C83.237 318.093 83.0137 318.145 82.8223 318.25C82.6354 318.35 82.4782 318.496 82.3506 318.687V322.434L83.0615 322.645V323.937H79.2471ZM94.2861 323.937V322.645L95.332 322.434V320.588L92.4131 315.427L91.415 315.283V313.984H95.5508V315.283L94.8262 315.399L96.3438 318.366L96.501 318.694H96.5488L96.7129 318.38L98.4355 315.399L97.3691 315.283V313.984H101.416V315.283L100.404 315.427L97.5127 320.417V322.434L98.5654 322.645V323.937H94.2861ZM105.34 324.081C104.592 324.081 103.952 323.924 103.419 323.609C102.89 323.29 102.485 322.848 102.202 322.283C101.924 321.713 101.785 321.055 101.785 320.308V320.171C101.785 319.433 101.924 318.781 102.202 318.216C102.485 317.651 102.89 317.209 103.419 316.89C103.948 316.566 104.583 316.404 105.326 316.404C106.069 316.404 106.705 316.564 107.233 316.883C107.762 317.202 108.165 317.644 108.443 318.209C108.726 318.774 108.867 319.428 108.867 320.171V320.308C108.867 321.05 108.726 321.707 108.443 322.276C108.165 322.841 107.762 323.283 107.233 323.602C106.709 323.921 106.078 324.081 105.34 324.081ZM105.34 322.413C105.659 322.413 105.916 322.326 106.112 322.153C106.313 321.98 106.459 321.736 106.55 321.422C106.646 321.107 106.693 320.736 106.693 320.308V320.171C106.693 319.756 106.646 319.394 106.55 319.084C106.459 318.769 106.313 318.523 106.112 318.346C105.912 318.168 105.65 318.079 105.326 318.079C105.007 318.079 104.747 318.168 104.547 318.346C104.346 318.523 104.201 318.769 104.109 319.084C104.018 319.394 103.973 319.756 103.973 320.171V320.308C103.973 320.736 104.018 321.11 104.109 321.429C104.201 321.743 104.346 321.987 104.547 322.16C104.747 322.329 105.012 322.413 105.34 322.413ZM112.812 324.081C112.041 324.081 111.435 323.837 110.993 323.35C110.551 322.857 110.33 322.099 110.33 321.073V318.052L109.53 317.84V316.541H110.33H112.518V321.087C112.518 321.533 112.602 321.864 112.771 322.078C112.939 322.288 113.197 322.393 113.543 322.393C113.78 322.393 113.999 322.347 114.199 322.256C114.404 322.165 114.577 322.03 114.719 321.852V318.052L113.878 317.84V316.541H114.719H116.906V322.434L117.815 322.645V323.937H114.999L114.855 323.049C114.618 323.381 114.327 323.637 113.98 323.814C113.639 323.992 113.249 324.081 112.812 324.081ZM118.69 323.937V322.645L119.6 322.434V318.052L118.561 317.84V316.541H121.65L121.719 317.45L121.732 317.628C121.906 317.213 122.12 316.906 122.375 316.705C122.63 316.504 122.945 316.404 123.318 316.404C123.428 316.404 123.551 316.413 123.688 316.432C123.829 316.45 123.961 316.477 124.084 316.514L123.858 318.523L122.854 318.476C122.589 318.462 122.38 318.498 122.225 318.585C122.07 318.671 121.924 318.804 121.787 318.981V322.434L122.703 322.645V323.937H118.69ZM59.5322 342.081C58.762 342.081 58.0693 342.001 57.4541 341.842C56.8389 341.682 56.2305 341.395 55.6289 340.98V338.485H57.3174L57.5293 339.859C57.7025 340.028 57.9714 340.167 58.3359 340.276C58.7005 340.386 59.0993 340.44 59.5322 340.44C59.8649 340.44 60.1452 340.397 60.373 340.31C60.6009 340.219 60.7741 340.092 60.8926 339.928C61.0111 339.759 61.0703 339.561 61.0703 339.333C61.0703 339.114 61.0156 338.921 60.9062 338.752C60.8014 338.579 60.626 338.419 60.3799 338.273C60.1338 338.128 59.8011 337.984 59.3818 337.843C58.5615 337.592 57.8848 337.328 57.3516 337.05C56.8229 336.767 56.4264 336.435 56.1621 336.052C55.9023 335.664 55.7725 335.19 55.7725 334.63C55.7725 334.088 55.9251 333.611 56.2305 333.201C56.5404 332.786 56.9642 332.461 57.502 332.224C58.0397 331.987 58.6595 331.864 59.3613 331.854C60.1497 331.836 60.847 331.921 61.4531 332.107C62.0592 332.294 62.5879 332.563 63.0391 332.914V335.231H61.4121L61.1387 333.885C60.9746 333.789 60.7467 333.705 60.4551 333.632C60.168 333.559 59.849 333.522 59.498 333.522C59.1973 333.522 58.9307 333.566 58.6982 333.652C58.4704 333.734 58.2881 333.86 58.1514 334.028C58.0192 334.192 57.9531 334.395 57.9531 334.637C57.9531 334.833 58.0101 335.008 58.124 335.163C58.238 335.318 58.4339 335.468 58.7119 335.614C58.9899 335.755 59.375 335.913 59.8672 336.086C60.9792 336.405 61.8223 336.815 62.3965 337.316C62.9753 337.818 63.2646 338.485 63.2646 339.319C63.2646 339.898 63.1074 340.395 62.793 340.81C62.4831 341.22 62.0479 341.534 61.4873 341.753C60.9268 341.972 60.2751 342.081 59.5322 342.081ZM64.0166 344.781V343.482L64.96 343.27V336.052L63.9072 335.84V334.541H66.9902L67.0791 335.389C67.2887 335.074 67.5417 334.833 67.8379 334.664C68.1341 334.491 68.4941 334.404 68.918 334.404C69.5059 334.404 70.0094 334.566 70.4287 334.89C70.8525 335.213 71.1761 335.667 71.3994 336.25C71.6273 336.829 71.7412 337.505 71.7412 338.28V338.424C71.7412 339.153 71.6273 339.793 71.3994 340.345C71.1761 340.896 70.8503 341.324 70.4219 341.63C69.998 341.931 69.4876 342.081 68.8906 342.081C68.5078 342.081 68.1706 342.013 67.8789 341.876C67.5918 341.735 67.3434 341.527 67.1338 341.254V343.27L68.0361 343.482V344.781H64.0166ZM68.2412 340.413C68.7152 340.413 69.0524 340.235 69.2529 339.88C69.4535 339.524 69.5537 339.039 69.5537 338.424V338.28C69.5537 337.843 69.5081 337.46 69.417 337.132C69.3258 336.804 69.1823 336.548 68.9863 336.366C68.7949 336.184 68.542 336.093 68.2275 336.093C67.986 336.093 67.7718 336.147 67.585 336.257C67.3981 336.362 67.2477 336.519 67.1338 336.728V339.859C67.2477 340.042 67.3981 340.181 67.585 340.276C67.7764 340.367 67.9951 340.413 68.2412 340.413ZM76.2188 342.081C75.4714 342.081 74.8311 341.924 74.2979 341.609C73.7692 341.29 73.3636 340.848 73.0811 340.283C72.8031 339.713 72.6641 339.055 72.6641 338.308V338.171C72.6641 337.433 72.8031 336.781 73.0811 336.216C73.3636 335.651 73.7692 335.209 74.2979 334.89C74.8265 334.566 75.4622 334.404 76.2051 334.404C76.9479 334.404 77.5837 334.564 78.1123 334.883C78.641 335.202 79.0443 335.644 79.3223 336.209C79.6048 336.774 79.7461 337.428 79.7461 338.171V338.308C79.7461 339.05 79.6048 339.707 79.3223 340.276C79.0443 340.841 78.641 341.283 78.1123 341.602C77.5882 341.921 76.957 342.081 76.2188 342.081ZM76.2188 340.413C76.5378 340.413 76.7952 340.326 76.9912 340.153C77.1917 339.98 77.3376 339.736 77.4287 339.422C77.5244 339.107 77.5723 338.736 77.5723 338.308V338.171C77.5723 337.756 77.5244 337.394 77.4287 337.084C77.3376 336.769 77.1917 336.523 76.9912 336.346C76.7907 336.168 76.5286 336.079 76.2051 336.079C75.8861 336.079 75.6263 336.168 75.4258 336.346C75.2253 336.523 75.0794 336.769 74.9883 337.084C74.8971 337.394 74.8516 337.756 74.8516 338.171V338.308C74.8516 338.736 74.8971 339.11 74.9883 339.429C75.0794 339.743 75.2253 339.987 75.4258 340.16C75.6263 340.329 75.8906 340.413 76.2188 340.413ZM80.792 341.937V340.645L81.7012 340.434V336.052L80.6621 335.84V334.541H83.752L83.8203 335.45L83.834 335.628C84.0072 335.213 84.2214 334.906 84.4766 334.705C84.7318 334.504 85.0462 334.404 85.4199 334.404C85.5293 334.404 85.6523 334.413 85.7891 334.432C85.9303 334.45 86.0625 334.477 86.1855 334.514L85.96 336.523L84.9551 336.476C84.6908 336.462 84.4811 336.498 84.3262 336.585C84.1712 336.671 84.0254 336.804 83.8887 336.981V340.434L84.8047 340.645V341.937H80.792ZM89.8633 342.088C89.1341 342.088 88.5758 341.892 88.1885 341.5C87.8011 341.103 87.6074 340.477 87.6074 339.62V336.065H86.6367V334.541H87.6074V332.723H89.7812V334.541H91.0732V336.065H89.7812V339.613C89.7812 339.878 89.8382 340.067 89.9521 340.181C90.0706 340.29 90.2301 340.345 90.4307 340.345C90.5309 340.345 90.6335 340.338 90.7383 340.324C90.8431 340.31 90.9388 340.297 91.0254 340.283L91.1895 341.89C90.9844 341.949 90.7679 341.997 90.54 342.033C90.3167 342.07 90.0911 342.088 89.8633 342.088ZM97.4854 341.937V340.645L98.5381 340.434V333.673H96.8564L96.7676 334.808H95.1201V331.984H104.171V334.808H102.503L102.421 333.673H100.726V340.434L101.778 340.645V341.937H97.4854ZM104.54 341.937V340.645L105.449 340.434V336.052L104.41 335.84V334.541H107.5L107.568 335.45L107.582 335.628C107.755 335.213 107.969 334.906 108.225 334.705C108.48 334.504 108.794 334.404 109.168 334.404C109.277 334.404 109.4 334.413 109.537 334.432C109.678 334.45 109.811 334.477 109.934 334.514L109.708 336.523L108.703 336.476C108.439 336.462 108.229 336.498 108.074 336.585C107.919 336.671 107.773 336.804 107.637 336.981V340.434L108.553 340.645V341.937H104.54ZM112.791 342.081C112.062 342.081 111.476 341.883 111.034 341.486C110.597 341.085 110.378 340.545 110.378 339.866C110.378 339.406 110.501 338.998 110.747 338.643C110.998 338.287 111.371 338.009 111.868 337.809C112.365 337.608 112.982 337.508 113.721 337.508H114.603V337.016C114.603 336.687 114.507 336.416 114.315 336.202C114.129 335.988 113.841 335.881 113.454 335.881C113.267 335.881 113.096 335.904 112.941 335.949C112.791 335.995 112.652 336.061 112.524 336.147L112.367 337.104H110.809L110.781 335.122C111.182 334.917 111.611 334.746 112.066 334.609C112.522 334.473 113.028 334.404 113.584 334.404C114.573 334.404 115.354 334.632 115.929 335.088C116.503 335.544 116.79 336.193 116.79 337.036V339.935C116.79 340.039 116.79 340.142 116.79 340.242C116.795 340.338 116.806 340.431 116.824 340.522L117.604 340.645V341.937H114.979C114.924 341.833 114.867 341.71 114.808 341.568C114.748 341.427 114.707 341.286 114.685 341.144C114.452 341.432 114.186 341.659 113.885 341.828C113.584 341.997 113.219 342.081 112.791 342.081ZM113.42 340.502C113.648 340.502 113.869 340.452 114.083 340.352C114.297 340.251 114.47 340.115 114.603 339.941V338.82H113.734C113.352 338.82 113.058 338.907 112.853 339.08C112.652 339.253 112.552 339.467 112.552 339.723C112.552 339.969 112.629 340.16 112.784 340.297C112.944 340.434 113.156 340.502 113.42 340.502ZM121.042 342.081C120.459 342.081 119.957 341.931 119.538 341.63C119.119 341.324 118.798 340.896 118.574 340.345C118.355 339.793 118.246 339.153 118.246 338.424V338.28C118.246 337.505 118.358 336.829 118.581 336.25C118.804 335.667 119.123 335.213 119.538 334.89C119.957 334.566 120.454 334.404 121.028 334.404C121.429 334.404 121.776 334.486 122.067 334.65C122.364 334.81 122.621 335.038 122.84 335.334V332.784L121.787 332.572V331.273H122.84H125.027V340.434L125.943 340.645V341.937H123.134L122.97 341.028C122.742 341.375 122.471 341.637 122.156 341.814C121.842 341.992 121.47 342.081 121.042 342.081ZM121.712 340.393C121.949 340.393 122.163 340.345 122.354 340.249C122.55 340.149 122.712 340.003 122.84 339.811V336.756C122.712 336.546 122.555 336.384 122.368 336.27C122.181 336.152 121.967 336.093 121.726 336.093C121.42 336.093 121.172 336.186 120.98 336.373C120.789 336.555 120.65 336.81 120.563 337.139C120.477 337.462 120.434 337.843 120.434 338.28V338.424C120.434 339.039 120.529 339.522 120.721 339.873C120.912 340.219 121.243 340.393 121.712 340.393ZM126.422 341.937V340.645L127.338 340.434V336.052L126.292 335.84V334.541H129.525V340.434L130.441 340.645V341.937H126.422ZM127.27 333.058V331.273H129.525V333.058H127.27ZM130.927 341.937V340.645L131.843 340.434V336.052L130.797 335.84V334.541H133.894L133.982 335.587C134.229 335.213 134.532 334.924 134.892 334.719C135.252 334.509 135.662 334.404 136.122 334.404C136.833 334.404 137.394 334.639 137.804 335.108C138.214 335.578 138.419 336.318 138.419 337.33V340.434L139.328 340.645V341.937H135.438V340.645L136.225 340.434V337.33C136.225 336.883 136.133 336.567 135.951 336.38C135.773 336.188 135.514 336.093 135.172 336.093C134.917 336.093 134.693 336.145 134.502 336.25C134.315 336.35 134.158 336.496 134.03 336.687V340.434L134.741 340.645V341.937H130.927ZM143.088 344.925C142.705 344.925 142.272 344.877 141.789 344.781C141.311 344.685 140.889 344.546 140.524 344.364L140.9 342.833C141.238 342.974 141.586 343.084 141.946 343.161C142.311 343.239 142.646 343.277 142.951 343.277C143.466 343.277 143.844 343.134 144.086 342.847C144.327 342.564 144.448 342.172 144.448 341.671V341.254C144.234 341.518 143.983 341.723 143.696 341.869C143.414 342.01 143.088 342.081 142.719 342.081C142.117 342.081 141.6 341.931 141.167 341.63C140.739 341.324 140.41 340.896 140.183 340.345C139.959 339.793 139.848 339.153 139.848 338.424V338.28C139.848 337.505 139.959 336.829 140.183 336.25C140.41 335.667 140.734 335.213 141.153 334.89C141.573 334.566 142.076 334.404 142.664 334.404C143.097 334.404 143.468 334.498 143.778 334.685C144.093 334.871 144.359 335.133 144.578 335.471L144.722 334.541H146.636V341.685C146.636 342.336 146.492 342.904 146.205 343.387C145.923 343.874 145.515 344.253 144.981 344.521C144.453 344.79 143.822 344.925 143.088 344.925ZM143.348 340.393C143.589 340.393 143.803 340.347 143.99 340.256C144.177 340.165 144.33 340.032 144.448 339.859V336.701C144.33 336.505 144.177 336.355 143.99 336.25C143.803 336.145 143.591 336.093 143.354 336.093C143.04 336.093 142.785 336.184 142.589 336.366C142.393 336.548 142.252 336.804 142.165 337.132C142.078 337.46 142.035 337.843 142.035 338.28V338.424C142.035 339.039 142.133 339.522 142.329 339.873C142.53 340.219 142.869 340.393 143.348 340.393ZM146.376 336.086L145.405 334.541H147.497V335.847L146.376 336.086ZM60.1406 360.081C59.1836 360.081 58.3405 359.885 57.6113 359.493C56.8822 359.097 56.3148 358.532 55.9092 357.798C55.5036 357.064 55.3008 356.185 55.3008 355.159V354.769C55.3008 353.808 55.4922 352.958 55.875 352.22C56.2578 351.477 56.8024 350.896 57.5088 350.477C58.2197 350.053 59.0628 349.841 60.0381 349.841C60.7217 349.841 61.3665 349.934 61.9727 350.121C62.5833 350.308 63.137 350.611 63.6338 351.03V353.512H62.0273L61.8086 352.021C61.6536 351.917 61.4896 351.825 61.3164 351.748C61.1432 351.671 60.9564 351.611 60.7559 351.57C60.5553 351.529 60.3389 351.509 60.1064 351.509C59.5687 351.509 59.1038 351.639 58.7119 351.898C58.32 352.158 58.0169 352.53 57.8027 353.013C57.5885 353.496 57.4814 354.077 57.4814 354.756V355.159C57.4814 355.815 57.5908 356.39 57.8096 356.882C58.0329 357.369 58.3473 357.748 58.7529 358.017C59.1585 358.285 59.6302 358.42 60.168 358.42C60.4505 358.42 60.7331 358.39 61.0156 358.331C61.2982 358.267 61.5625 358.185 61.8086 358.085L62.0342 356.684H63.6406V359.117C63.2487 359.381 62.7542 359.609 62.1572 359.801C61.5648 359.988 60.8926 360.081 60.1406 360.081ZM67.0039 360.081C66.2747 360.081 65.6891 359.883 65.2471 359.486C64.8096 359.085 64.5908 358.545 64.5908 357.866C64.5908 357.406 64.7139 356.998 64.96 356.643C65.2106 356.287 65.5843 356.009 66.0811 355.809C66.5778 355.608 67.1953 355.508 67.9336 355.508H68.8154V355.016C68.8154 354.687 68.7197 354.416 68.5283 354.202C68.3415 353.988 68.0544 353.881 67.667 353.881C67.4801 353.881 67.3092 353.904 67.1543 353.949C67.0039 353.995 66.8649 354.061 66.7373 354.147L66.5801 355.104H65.0215L64.9941 353.122C65.3952 352.917 65.8236 352.746 66.2793 352.609C66.735 352.473 67.2409 352.404 67.7969 352.404C68.7858 352.404 69.5674 352.632 70.1416 353.088C70.7158 353.544 71.0029 354.193 71.0029 355.036V357.935C71.0029 358.039 71.0029 358.142 71.0029 358.242C71.0075 358.338 71.0189 358.431 71.0371 358.522L71.8164 358.645V359.937H69.1914C69.1367 359.833 69.0798 359.71 69.0205 359.568C68.9613 359.427 68.9202 359.286 68.8975 359.144C68.665 359.432 68.3984 359.659 68.0977 359.828C67.7969 359.997 67.4323 360.081 67.0039 360.081ZM67.6328 358.502C67.8607 358.502 68.0817 358.452 68.2959 358.352C68.5101 358.251 68.6833 358.115 68.8154 357.941V356.82H67.9473C67.5645 356.82 67.2705 356.907 67.0654 357.08C66.8649 357.253 66.7646 357.467 66.7646 357.723C66.7646 357.969 66.8421 358.16 66.9971 358.297C67.1566 358.434 67.3685 358.502 67.6328 358.502ZM72.6299 359.937V358.645L73.5391 358.434V354.052L72.5 353.84V352.541H75.5898L75.6582 353.45L75.6719 353.628C75.8451 353.213 76.0592 352.906 76.3145 352.705C76.5697 352.504 76.8841 352.404 77.2578 352.404C77.3672 352.404 77.4902 352.413 77.627 352.432C77.7682 352.45 77.9004 352.477 78.0234 352.514L77.7979 354.523L76.793 354.476C76.5286 354.462 76.319 354.498 76.1641 354.585C76.0091 354.671 75.8633 354.804 75.7266 354.981V358.434L76.6426 358.645V359.937H72.6299ZM81.2432 360.081C80.6598 360.081 80.1585 359.931 79.7393 359.63C79.32 359.324 78.9987 358.896 78.7754 358.345C78.5566 357.793 78.4473 357.153 78.4473 356.424V356.28C78.4473 355.505 78.5589 354.829 78.7822 354.25C79.0055 353.667 79.3245 353.213 79.7393 352.89C80.1585 352.566 80.6553 352.404 81.2295 352.404C81.6305 352.404 81.9769 352.486 82.2686 352.65C82.5648 352.81 82.8223 353.038 83.041 353.334V350.784L81.9883 350.572V349.273H83.041H85.2285V358.434L86.1445 358.645V359.937H83.335L83.1709 359.028C82.943 359.375 82.6719 359.637 82.3574 359.814C82.043 359.992 81.6715 360.081 81.2432 360.081ZM81.9131 358.393C82.1501 358.393 82.3643 358.345 82.5557 358.249C82.7516 358.149 82.9134 358.003 83.041 357.811V354.756C82.9134 354.546 82.7562 354.384 82.5693 354.27C82.3825 354.152 82.1683 354.093 81.9268 354.093C81.6214 354.093 81.373 354.186 81.1816 354.373C80.9902 354.555 80.8512 354.81 80.7646 355.139C80.6781 355.462 80.6348 355.843 80.6348 356.28V356.424C80.6348 357.039 80.7305 357.522 80.9219 357.873C81.1133 358.219 81.4437 358.393 81.9131 358.393Z" fill="black"/>
<path d="M415.346 324.081C414.525 324.081 413.805 323.944 413.186 323.671C412.57 323.397 412.094 322.999 411.757 322.475C411.42 321.946 411.251 321.303 411.251 320.547V315.495L410.205 315.283V313.984H414.484V315.283L413.438 315.495V320.547C413.438 320.966 413.514 321.315 413.664 321.593C413.814 321.871 414.031 322.078 414.313 322.215C414.601 322.352 414.942 322.42 415.339 322.42C415.749 322.42 416.098 322.352 416.385 322.215C416.672 322.078 416.888 321.871 417.034 321.593C417.185 321.315 417.26 320.966 417.26 320.547V315.495L416.221 315.283V313.984H420.5V315.283L419.447 315.495V320.547C419.447 321.294 419.274 321.932 418.928 322.461C418.586 322.99 418.107 323.393 417.492 323.671C416.882 323.944 416.166 324.081 415.346 324.081ZM424.321 324.081C423.756 324.081 423.228 324.029 422.735 323.924C422.248 323.819 421.794 323.671 421.375 323.479L421.348 321.285H422.845L423.118 322.352C423.246 322.42 423.394 322.477 423.562 322.522C423.731 322.568 423.927 322.591 424.15 322.591C424.57 322.591 424.861 322.527 425.025 322.399C425.189 322.272 425.271 322.115 425.271 321.928C425.271 321.745 425.18 321.581 424.998 321.435C424.816 321.29 424.444 321.164 423.884 321.06C423.013 320.882 422.371 320.597 421.956 320.205C421.546 319.809 421.341 319.307 421.341 318.701C421.341 318.291 421.441 317.915 421.642 317.573C421.842 317.227 422.157 316.949 422.585 316.739C423.018 316.525 423.581 316.418 424.273 316.418C424.829 316.418 425.349 316.47 425.832 316.575C426.315 316.675 426.716 316.805 427.035 316.965L427.042 319.084H425.552L425.34 318.127C425.226 318.045 425.094 317.983 424.943 317.942C424.793 317.897 424.624 317.874 424.438 317.874C424.109 317.874 423.861 317.938 423.692 318.065C423.528 318.193 423.446 318.355 423.446 318.551C423.446 318.665 423.478 318.776 423.542 318.886C423.61 318.99 423.738 319.091 423.925 319.186C424.112 319.278 424.387 319.364 424.752 319.446C425.636 319.642 426.288 319.911 426.707 320.253C427.131 320.595 427.343 321.091 427.343 321.743C427.343 322.449 427.088 323.017 426.577 323.445C426.067 323.869 425.315 324.081 424.321 324.081ZM431.786 324.081C431.071 324.081 430.446 323.926 429.913 323.616C429.38 323.302 428.965 322.873 428.669 322.331C428.377 321.784 428.231 321.164 428.231 320.472V320.205C428.231 319.467 428.366 318.81 428.635 318.236C428.904 317.662 429.291 317.213 429.797 316.89C430.303 316.561 430.909 316.4 431.615 316.404C432.285 316.404 432.85 316.534 433.311 316.794C433.771 317.054 434.119 317.434 434.356 317.935C434.598 318.432 434.719 319.038 434.719 319.754V320.916H430.501L430.494 320.957C430.521 321.24 430.599 321.49 430.727 321.709C430.859 321.923 431.039 322.094 431.267 322.222C431.499 322.349 431.782 322.413 432.114 322.413C432.456 322.413 432.78 322.372 433.085 322.29C433.395 322.208 433.707 322.08 434.021 321.907L434.568 323.24C434.249 323.482 433.853 323.682 433.379 323.842C432.91 324.001 432.379 324.081 431.786 324.081ZM430.508 319.515H432.695V319.337C432.695 319.054 432.661 318.815 432.593 318.619C432.529 318.419 432.42 318.266 432.265 318.161C432.114 318.056 431.914 318.004 431.663 318.004C431.408 318.004 431.198 318.068 431.034 318.195C430.87 318.323 430.745 318.498 430.658 318.722C430.576 318.945 430.519 319.198 430.487 319.48L430.508 319.515ZM438.834 323.937V322.645L439.545 322.543L442.614 313.984H444.918L447.98 322.543L448.685 322.645V323.937H445.144V322.645L445.813 322.522L445.438 321.292H442.081L441.719 322.522L442.389 322.645V323.937H438.834ZM442.573 319.72H444.945L443.879 316.493L443.776 316.172H443.735L443.626 316.52L442.573 319.72ZM449.238 323.937V322.645L450.291 322.434V315.495L449.238 315.283V313.984H453.518V315.283L452.472 315.495V322.434L453.518 322.645V323.937H449.238ZM459.854 323.937V322.645L460.907 322.434V315.673H459.226L459.137 316.808H457.489V313.984H466.54V316.808H464.872L464.79 315.673H463.095V322.434L464.147 322.645V323.937H459.854ZM470.252 324.081C469.505 324.081 468.864 323.924 468.331 323.609C467.802 323.29 467.397 322.848 467.114 322.283C466.836 321.713 466.697 321.055 466.697 320.308V320.171C466.697 319.433 466.836 318.781 467.114 318.216C467.397 317.651 467.802 317.209 468.331 316.89C468.86 316.566 469.495 316.404 470.238 316.404C470.981 316.404 471.617 316.564 472.146 316.883C472.674 317.202 473.077 317.644 473.355 318.209C473.638 318.774 473.779 319.428 473.779 320.171V320.308C473.779 321.05 473.638 321.707 473.355 322.276C473.077 322.841 472.674 323.283 472.146 323.602C471.621 323.921 470.99 324.081 470.252 324.081ZM470.252 322.413C470.571 322.413 470.828 322.326 471.024 322.153C471.225 321.98 471.371 321.736 471.462 321.422C471.558 321.107 471.605 320.736 471.605 320.308V320.171C471.605 319.756 471.558 319.394 471.462 319.084C471.371 318.769 471.225 318.523 471.024 318.346C470.824 318.168 470.562 318.079 470.238 318.079C469.919 318.079 469.66 318.168 469.459 318.346C469.258 318.523 469.113 318.769 469.021 319.084C468.93 319.394 468.885 319.756 468.885 320.171V320.308C468.885 320.736 468.93 321.11 469.021 321.429C469.113 321.743 469.258 321.987 469.459 322.16C469.66 322.329 469.924 322.413 470.252 322.413ZM415.004 342.081C413.992 342.081 413.133 341.878 412.427 341.473C411.725 341.067 411.187 340.504 410.813 339.784C410.444 339.06 410.26 338.223 410.26 337.275V336.879C410.26 335.885 410.442 335.013 410.807 334.261C411.176 333.504 411.704 332.912 412.393 332.483C413.085 332.055 413.91 331.841 414.867 331.841C415.564 331.841 416.239 331.941 416.891 332.142C417.547 332.342 418.121 332.652 418.613 333.071V335.334H417.027L416.706 334.035C416.537 333.88 416.307 333.753 416.016 333.652C415.724 333.552 415.391 333.502 415.018 333.502C414.466 333.502 413.997 333.645 413.609 333.933C413.227 334.215 412.933 334.609 412.728 335.115C412.527 335.616 412.427 336.2 412.427 336.865V337.275C412.427 337.913 412.529 338.469 412.734 338.943C412.939 339.413 413.238 339.777 413.63 340.037C414.022 340.297 414.505 340.427 415.079 340.427C415.398 340.427 415.701 340.395 415.988 340.331C416.28 340.267 416.515 340.192 416.692 340.105V338.608L415.414 338.485V336.968H418.88V341.042C418.397 341.37 417.829 341.625 417.178 341.808C416.531 341.99 415.806 342.081 415.004 342.081ZM420.056 341.937V340.645L420.965 340.434V336.052L419.926 335.84V334.541H423.016L423.084 335.45L423.098 335.628C423.271 335.213 423.485 334.906 423.74 334.705C423.995 334.504 424.31 334.404 424.684 334.404C424.793 334.404 424.916 334.413 425.053 334.432C425.194 334.45 425.326 334.477 425.449 334.514L425.224 336.523L424.219 336.476C423.954 336.462 423.745 336.498 423.59 336.585C423.435 336.671 423.289 336.804 423.152 336.981V340.434L424.068 340.645V341.937H420.056ZM428.307 342.081C427.577 342.081 426.992 341.883 426.55 341.486C426.112 341.085 425.894 340.545 425.894 339.866C425.894 339.406 426.017 338.998 426.263 338.643C426.513 338.287 426.887 338.009 427.384 337.809C427.881 337.608 428.498 337.508 429.236 337.508H430.118V337.016C430.118 336.687 430.022 336.416 429.831 336.202C429.644 335.988 429.357 335.881 428.97 335.881C428.783 335.881 428.612 335.904 428.457 335.949C428.307 335.995 428.168 336.061 428.04 336.147L427.883 337.104H426.324L426.297 335.122C426.698 334.917 427.126 334.746 427.582 334.609C428.038 334.473 428.544 334.404 429.1 334.404C430.089 334.404 430.87 334.632 431.444 335.088C432.019 335.544 432.306 336.193 432.306 337.036V339.935C432.306 340.039 432.306 340.142 432.306 340.242C432.31 340.338 432.322 340.431 432.34 340.522L433.119 340.645V341.937H430.494C430.439 341.833 430.382 341.71 430.323 341.568C430.264 341.427 430.223 341.286 430.2 341.144C429.968 341.432 429.701 341.659 429.4 341.828C429.1 341.997 428.735 342.081 428.307 342.081ZM428.936 340.502C429.163 340.502 429.384 340.452 429.599 340.352C429.813 340.251 429.986 340.115 430.118 339.941V338.82H429.25C428.867 338.82 428.573 338.907 428.368 339.08C428.168 339.253 428.067 339.467 428.067 339.723C428.067 339.969 428.145 340.16 428.3 340.297C428.459 340.434 428.671 340.502 428.936 340.502ZM438.171 342.081C437.72 342.081 437.337 341.992 437.022 341.814C436.708 341.637 436.444 341.379 436.229 341.042L436.079 341.937H434.192V332.784L433.146 332.572V331.273H436.373V335.3C436.578 335.013 436.833 334.792 437.139 334.637C437.444 334.482 437.797 334.404 438.198 334.404C438.791 334.404 439.292 334.564 439.702 334.883C440.117 335.197 440.431 335.646 440.646 336.229C440.864 336.808 440.974 337.492 440.974 338.28V338.424C440.974 339.162 440.864 339.807 440.646 340.358C440.431 340.905 440.115 341.329 439.695 341.63C439.281 341.931 438.772 342.081 438.171 342.081ZM437.487 340.393C437.961 340.393 438.296 340.226 438.492 339.893C438.693 339.556 438.793 339.066 438.793 338.424V338.28C438.793 337.82 438.747 337.428 438.656 337.104C438.57 336.781 438.433 336.532 438.246 336.359C438.059 336.182 437.815 336.093 437.515 336.093C437.25 336.093 437.02 336.157 436.824 336.284C436.633 336.407 436.482 336.574 436.373 336.783V339.818C436.501 340.01 436.658 340.153 436.845 340.249C437.032 340.345 437.246 340.393 437.487 340.393ZM450.018 342.081C449.061 342.081 448.217 341.885 447.488 341.493C446.759 341.097 446.192 340.532 445.786 339.798C445.381 339.064 445.178 338.185 445.178 337.159V336.769C445.178 335.808 445.369 334.958 445.752 334.22C446.135 333.477 446.679 332.896 447.386 332.477C448.097 332.053 448.94 331.841 449.915 331.841C450.599 331.841 451.243 331.934 451.85 332.121C452.46 332.308 453.014 332.611 453.511 333.03V335.512H451.904L451.686 334.021C451.531 333.917 451.367 333.825 451.193 333.748C451.02 333.671 450.833 333.611 450.633 333.57C450.432 333.529 450.216 333.509 449.983 333.509C449.446 333.509 448.981 333.639 448.589 333.898C448.197 334.158 447.894 334.53 447.68 335.013C447.465 335.496 447.358 336.077 447.358 336.756V337.159C447.358 337.815 447.468 338.39 447.687 338.882C447.91 339.369 448.224 339.748 448.63 340.017C449.035 340.285 449.507 340.42 450.045 340.42C450.327 340.42 450.61 340.39 450.893 340.331C451.175 340.267 451.439 340.185 451.686 340.085L451.911 338.684H453.518V341.117C453.126 341.381 452.631 341.609 452.034 341.801C451.442 341.988 450.77 342.081 450.018 342.081ZM456.881 342.081C456.152 342.081 455.566 341.883 455.124 341.486C454.687 341.085 454.468 340.545 454.468 339.866C454.468 339.406 454.591 338.998 454.837 338.643C455.088 338.287 455.461 338.009 455.958 337.809C456.455 337.608 457.072 337.508 457.811 337.508H458.692V337.016C458.692 336.687 458.597 336.416 458.405 336.202C458.218 335.988 457.931 335.881 457.544 335.881C457.357 335.881 457.186 335.904 457.031 335.949C456.881 335.995 456.742 336.061 456.614 336.147L456.457 337.104H454.898L454.871 335.122C455.272 334.917 455.701 334.746 456.156 334.609C456.612 334.473 457.118 334.404 457.674 334.404C458.663 334.404 459.444 334.632 460.019 335.088C460.593 335.544 460.88 336.193 460.88 337.036V339.935C460.88 340.039 460.88 340.142 460.88 340.242C460.884 340.338 460.896 340.431 460.914 340.522L461.693 340.645V341.937H459.068C459.014 341.833 458.957 341.71 458.897 341.568C458.838 341.427 458.797 341.286 458.774 341.144C458.542 341.432 458.275 341.659 457.975 341.828C457.674 341.997 457.309 342.081 456.881 342.081ZM457.51 340.502C457.738 340.502 457.959 340.452 458.173 340.352C458.387 340.251 458.56 340.115 458.692 339.941V338.82H457.824C457.441 338.82 457.147 338.907 456.942 339.08C456.742 339.253 456.642 339.467 456.642 339.723C456.642 339.969 456.719 340.16 456.874 340.297C457.034 340.434 457.245 340.502 457.51 340.502ZM462.507 341.937V340.645L463.416 340.434V336.052L462.377 335.84V334.541H465.467L465.535 335.45L465.549 335.628C465.722 335.213 465.936 334.906 466.191 334.705C466.447 334.504 466.761 334.404 467.135 334.404C467.244 334.404 467.367 334.413 467.504 334.432C467.645 334.45 467.777 334.477 467.9 334.514L467.675 336.523L466.67 336.476C466.406 336.462 466.196 336.498 466.041 336.585C465.886 336.671 465.74 336.804 465.604 336.981V340.434L466.52 340.645V341.937H462.507ZM471.12 342.081C470.537 342.081 470.035 341.931 469.616 341.63C469.197 341.324 468.876 340.896 468.652 340.345C468.434 339.793 468.324 339.153 468.324 338.424V338.28C468.324 337.505 468.436 336.829 468.659 336.25C468.882 335.667 469.201 335.213 469.616 334.89C470.035 334.566 470.532 334.404 471.106 334.404C471.507 334.404 471.854 334.486 472.146 334.65C472.442 334.81 472.699 335.038 472.918 335.334V332.784L471.865 332.572V331.273H472.918H475.105V340.434L476.021 340.645V341.937H473.212L473.048 341.028C472.82 341.375 472.549 341.637 472.234 341.814C471.92 341.992 471.549 342.081 471.12 342.081ZM471.79 340.393C472.027 340.393 472.241 340.345 472.433 340.249C472.629 340.149 472.79 340.003 472.918 339.811V336.756C472.79 336.546 472.633 336.384 472.446 336.27C472.259 336.152 472.045 336.093 471.804 336.093C471.498 336.093 471.25 336.186 471.059 336.373C470.867 336.555 470.728 336.81 470.642 337.139C470.555 337.462 470.512 337.843 470.512 338.28V338.424C470.512 339.039 470.607 339.522 470.799 339.873C470.99 340.219 471.321 340.393 471.79 340.393ZM410.328 359.937V358.645L411.388 358.406V351.529L410.328 351.283V349.984H411.388H414.84C415.733 349.984 416.521 350.194 417.205 350.613C417.889 351.028 418.424 351.604 418.812 352.343C419.199 353.076 419.393 353.922 419.393 354.879V355.05C419.393 356.002 419.201 356.848 418.818 357.586C418.436 358.32 417.902 358.896 417.219 359.315C416.535 359.73 415.747 359.937 414.854 359.937H410.328ZM413.575 358.276H414.737C415.271 358.276 415.717 358.14 416.077 357.866C416.442 357.593 416.717 357.214 416.904 356.731C417.096 356.244 417.191 355.683 417.191 355.05V354.872C417.191 354.234 417.096 353.673 416.904 353.19C416.717 352.707 416.442 352.331 416.077 352.062C415.717 351.789 415.271 351.652 414.737 351.652H413.575V358.276ZM423.897 360.081C423.182 360.081 422.558 359.926 422.024 359.616C421.491 359.302 421.076 358.873 420.78 358.331C420.489 357.784 420.343 357.164 420.343 356.472V356.205C420.343 355.467 420.477 354.81 420.746 354.236C421.015 353.662 421.402 353.213 421.908 352.89C422.414 352.561 423.02 352.4 423.727 352.404C424.396 352.404 424.962 352.534 425.422 352.794C425.882 353.054 426.231 353.434 426.468 353.935C426.709 354.432 426.83 355.038 426.83 355.754V356.916H422.612L422.605 356.957C422.633 357.24 422.71 357.49 422.838 357.709C422.97 357.923 423.15 358.094 423.378 358.222C423.61 358.349 423.893 358.413 424.226 358.413C424.567 358.413 424.891 358.372 425.196 358.29C425.506 358.208 425.818 358.08 426.133 357.907L426.68 359.24C426.361 359.482 425.964 359.682 425.49 359.842C425.021 360.001 424.49 360.081 423.897 360.081ZM422.619 355.515H424.807V355.337C424.807 355.054 424.772 354.815 424.704 354.619C424.64 354.419 424.531 354.266 424.376 354.161C424.226 354.056 424.025 354.004 423.774 354.004C423.519 354.004 423.31 354.068 423.146 354.195C422.981 354.323 422.856 354.498 422.77 354.722C422.688 354.945 422.631 355.198 422.599 355.48L422.619 355.515ZM430.713 360.088C429.984 360.088 429.425 359.892 429.038 359.5C428.651 359.103 428.457 358.477 428.457 357.62V354.065H427.486V352.541H428.457V350.723H430.631V352.541H431.923V354.065H430.631V357.613C430.631 357.878 430.688 358.067 430.802 358.181C430.92 358.29 431.08 358.345 431.28 358.345C431.381 358.345 431.483 358.338 431.588 358.324C431.693 358.31 431.788 358.297 431.875 358.283L432.039 359.89C431.834 359.949 431.618 359.997 431.39 360.033C431.166 360.07 430.941 360.088 430.713 360.088ZM435.252 360.081C434.523 360.081 433.937 359.883 433.495 359.486C433.058 359.085 432.839 358.545 432.839 357.866C432.839 357.406 432.962 356.998 433.208 356.643C433.459 356.287 433.832 356.009 434.329 355.809C434.826 355.608 435.443 355.508 436.182 355.508H437.063V355.016C437.063 354.687 436.968 354.416 436.776 354.202C436.59 353.988 436.302 353.881 435.915 353.881C435.728 353.881 435.557 353.904 435.402 353.949C435.252 353.995 435.113 354.061 434.985 354.147L434.828 355.104H433.27L433.242 353.122C433.643 352.917 434.072 352.746 434.527 352.609C434.983 352.473 435.489 352.404 436.045 352.404C437.034 352.404 437.815 352.632 438.39 353.088C438.964 353.544 439.251 354.193 439.251 355.036V357.935C439.251 358.039 439.251 358.142 439.251 358.242C439.256 358.338 439.267 358.431 439.285 358.522L440.064 358.645V359.937H437.439C437.385 359.833 437.328 359.71 437.269 359.568C437.209 359.427 437.168 359.286 437.146 359.144C436.913 359.432 436.646 359.659 436.346 359.828C436.045 359.997 435.68 360.081 435.252 360.081ZM435.881 358.502C436.109 358.502 436.33 358.452 436.544 358.352C436.758 358.251 436.931 358.115 437.063 357.941V356.82H436.195C435.812 356.82 435.519 356.907 435.313 357.08C435.113 357.253 435.013 357.467 435.013 357.723C435.013 357.969 435.09 358.16 435.245 358.297C435.405 358.434 435.617 358.502 435.881 358.502ZM440.611 359.937V358.645L441.527 358.434V354.052L440.481 353.84V352.541H443.715V358.434L444.631 358.645V359.937H440.611ZM441.459 351.058V349.273H443.715V351.058H441.459ZM445.096 359.937V358.645L446.019 358.434V350.784L444.959 350.572V349.273H448.206V358.434L449.122 358.645V359.937H445.096ZM452.909 360.081C452.344 360.081 451.815 360.029 451.323 359.924C450.836 359.819 450.382 359.671 449.963 359.479L449.936 357.285H451.433L451.706 358.352C451.834 358.42 451.982 358.477 452.15 358.522C452.319 358.568 452.515 358.591 452.738 358.591C453.158 358.591 453.449 358.527 453.613 358.399C453.777 358.272 453.859 358.115 453.859 357.928C453.859 357.745 453.768 357.581 453.586 357.435C453.404 357.29 453.032 357.164 452.472 357.06C451.601 356.882 450.959 356.597 450.544 356.205C450.134 355.809 449.929 355.307 449.929 354.701C449.929 354.291 450.029 353.915 450.229 353.573C450.43 353.227 450.744 352.949 451.173 352.739C451.606 352.525 452.169 352.418 452.861 352.418C453.417 352.418 453.937 352.47 454.42 352.575C454.903 352.675 455.304 352.805 455.623 352.965L455.63 355.084H454.14L453.928 354.127C453.814 354.045 453.682 353.983 453.531 353.942C453.381 353.897 453.212 353.874 453.025 353.874C452.697 353.874 452.449 353.938 452.28 354.065C452.116 354.193 452.034 354.355 452.034 354.551C452.034 354.665 452.066 354.776 452.13 354.886C452.198 354.99 452.326 355.091 452.513 355.186C452.7 355.278 452.975 355.364 453.34 355.446C454.224 355.642 454.876 355.911 455.295 356.253C455.719 356.595 455.931 357.091 455.931 357.743C455.931 358.449 455.675 359.017 455.165 359.445C454.655 359.869 453.903 360.081 452.909 360.081Z" fill="black"/>
<path d="M67.5322 728.109C66.762 728.109 66.0693 728.03 65.4541 727.87C64.8389 727.711 64.2305 727.424 63.6289 727.009V724.514H65.3174L65.5293 725.888C65.7025 726.056 65.9714 726.195 66.3359 726.305C66.7005 726.414 67.0993 726.469 67.5322 726.469C67.8649 726.469 68.1452 726.425 68.373 726.339C68.6009 726.248 68.7741 726.12 68.8926 725.956C69.0111 725.787 69.0703 725.589 69.0703 725.361C69.0703 725.143 69.0156 724.949 68.9062 724.78C68.8014 724.607 68.626 724.448 68.3799 724.302C68.1338 724.156 67.8011 724.012 67.3818 723.871C66.5615 723.62 65.8848 723.356 65.3516 723.078C64.8229 722.796 64.4264 722.463 64.1621 722.08C63.9023 721.693 63.7725 721.219 63.7725 720.658C63.7725 720.116 63.9251 719.64 64.2305 719.229C64.5404 718.815 64.9642 718.489 65.502 718.252C66.0397 718.015 66.6595 717.892 67.3613 717.883C68.1497 717.865 68.847 717.949 69.4531 718.136C70.0592 718.323 70.5879 718.591 71.0391 718.942V721.26H69.4121L69.1387 719.913C68.9746 719.817 68.7467 719.733 68.4551 719.66C68.168 719.587 67.849 719.551 67.498 719.551C67.1973 719.551 66.9307 719.594 66.6982 719.681C66.4704 719.763 66.2881 719.888 66.1514 720.057C66.0192 720.221 65.9531 720.424 65.9531 720.665C65.9531 720.861 66.0101 721.036 66.124 721.191C66.238 721.346 66.4339 721.497 66.7119 721.643C66.9899 721.784 67.375 721.941 67.8672 722.114C68.9792 722.433 69.8223 722.843 70.3965 723.345C70.9753 723.846 71.2646 724.514 71.2646 725.348C71.2646 725.926 71.1074 726.423 70.793 726.838C70.4831 727.248 70.0479 727.562 69.4873 727.781C68.9268 728 68.2751 728.109 67.5322 728.109ZM75.6123 728.109C74.8968 728.109 74.2725 727.954 73.7393 727.645C73.2061 727.33 72.7913 726.902 72.4951 726.359C72.2035 725.812 72.0576 725.193 72.0576 724.5V724.233C72.0576 723.495 72.1921 722.839 72.4609 722.265C72.7298 721.69 73.1172 721.242 73.623 720.918C74.1289 720.59 74.735 720.428 75.4414 720.433C76.1113 720.433 76.6764 720.562 77.1367 720.822C77.597 721.082 77.9456 721.463 78.1826 721.964C78.4242 722.461 78.5449 723.067 78.5449 723.782V724.944H74.3271L74.3203 724.985C74.3477 725.268 74.4251 725.519 74.5527 725.737C74.6849 725.951 74.8649 726.122 75.0928 726.25C75.3252 726.378 75.6077 726.441 75.9404 726.441C76.2822 726.441 76.6058 726.4 76.9111 726.318C77.221 726.236 77.5332 726.109 77.8477 725.936L78.3945 727.269C78.0755 727.51 77.679 727.711 77.2051 727.87C76.7357 728.03 76.2048 728.109 75.6123 728.109ZM74.334 723.543H76.5215V723.365C76.5215 723.083 76.4873 722.843 76.4189 722.647C76.3551 722.447 76.2458 722.294 76.0908 722.189C75.9404 722.085 75.7399 722.032 75.4893 722.032C75.234 722.032 75.0244 722.096 74.8604 722.224C74.6963 722.351 74.571 722.527 74.4844 722.75C74.4023 722.973 74.3454 723.226 74.3135 723.509L74.334 723.543ZM79.3311 727.966V726.674L80.2471 726.462V722.08L79.2012 721.868V720.569H82.2979L82.3867 721.615C82.6328 721.242 82.9359 720.952 83.2959 720.747C83.6559 720.537 84.0661 720.433 84.5264 720.433C85.2373 720.433 85.7979 720.667 86.208 721.137C86.6182 721.606 86.8232 722.347 86.8232 723.358V726.462L87.7324 726.674V727.966H83.8428V726.674L84.6289 726.462V723.358C84.6289 722.912 84.5378 722.595 84.3555 722.408C84.1777 722.217 83.918 722.121 83.5762 722.121C83.321 722.121 83.0977 722.174 82.9062 722.278C82.7194 722.379 82.5622 722.524 82.4346 722.716V726.462L83.1455 726.674V727.966H79.3311ZM91.0479 728.109C90.4645 728.109 89.9632 727.959 89.5439 727.658C89.1247 727.353 88.8034 726.924 88.5801 726.373C88.3613 725.822 88.252 725.181 88.252 724.452V724.309C88.252 723.534 88.3636 722.857 88.5869 722.278C88.8102 721.695 89.1292 721.242 89.5439 720.918C89.9632 720.594 90.46 720.433 91.0342 720.433C91.4352 720.433 91.7816 720.515 92.0732 720.679C92.3695 720.838 92.627 721.066 92.8457 721.362V718.812L91.793 718.601V717.302H92.8457H95.0332V726.462L95.9492 726.674V727.966H93.1396L92.9756 727.057C92.7477 727.403 92.4766 727.665 92.1621 727.843C91.8477 728.021 91.4762 728.109 91.0479 728.109ZM91.7178 726.421C91.9548 726.421 92.1689 726.373 92.3604 726.277C92.5563 726.177 92.7181 726.031 92.8457 725.84V722.784C92.7181 722.575 92.5609 722.413 92.374 722.299C92.1872 722.18 91.973 722.121 91.7314 722.121C91.4261 722.121 91.1777 722.215 90.9863 722.401C90.7949 722.584 90.6559 722.839 90.5693 723.167C90.4827 723.491 90.4395 723.871 90.4395 724.309V724.452C90.4395 725.067 90.5352 725.55 90.7266 725.901C90.918 726.248 91.2484 726.421 91.7178 726.421ZM102.081 727.966V726.674L103.134 726.462V719.701H101.452L101.363 720.836H99.7158V718.013H108.767V720.836H107.099L107.017 719.701H105.321V726.462L106.374 726.674V727.966H102.081ZM112.479 728.109C111.731 728.109 111.091 727.952 110.558 727.638C110.029 727.319 109.623 726.877 109.341 726.312C109.063 725.742 108.924 725.083 108.924 724.336V724.199C108.924 723.461 109.063 722.809 109.341 722.244C109.623 721.679 110.029 721.237 110.558 720.918C111.086 720.594 111.722 720.433 112.465 720.433C113.208 720.433 113.843 720.592 114.372 720.911C114.901 721.23 115.304 721.672 115.582 722.237C115.865 722.802 116.006 723.456 116.006 724.199V724.336C116.006 725.079 115.865 725.735 115.582 726.305C115.304 726.87 114.901 727.312 114.372 727.631C113.848 727.95 113.217 728.109 112.479 728.109ZM112.479 726.441C112.798 726.441 113.055 726.355 113.251 726.182C113.451 726.008 113.597 725.765 113.688 725.45C113.784 725.136 113.832 724.764 113.832 724.336V724.199C113.832 723.785 113.784 723.422 113.688 723.112C113.597 722.798 113.451 722.552 113.251 722.374C113.05 722.196 112.788 722.107 112.465 722.107C112.146 722.107 111.886 722.196 111.686 722.374C111.485 722.552 111.339 722.798 111.248 723.112C111.157 723.422 111.111 723.785 111.111 724.199V724.336C111.111 724.764 111.157 725.138 111.248 725.457C111.339 725.771 111.485 726.015 111.686 726.188C111.886 726.357 112.15 726.441 112.479 726.441ZM120.189 727.966V726.674L121.242 726.462V719.523L120.189 719.312V718.013H128.023V720.788H126.362L126.287 719.694H123.43V721.978H126.704V723.666H123.43V726.284H126.431L126.506 725.149H128.153V727.966H120.189ZM129.131 727.966V726.674L130.184 726.462V719.523L129.131 719.312V718.013H130.184H133.595C134.807 718.013 135.75 718.243 136.425 718.703C137.104 719.159 137.443 719.84 137.443 720.747C137.443 721.212 137.325 721.629 137.088 721.998C136.855 722.363 136.507 722.638 136.042 722.825C136.443 722.912 136.771 723.062 137.026 723.276C137.286 723.491 137.478 723.75 137.601 724.056C137.728 724.356 137.792 724.685 137.792 725.04C137.792 726.002 137.473 726.731 136.835 727.228C136.197 727.72 135.281 727.966 134.087 727.966H129.131ZM132.371 726.298H134.087C134.588 726.298 134.969 726.193 135.229 725.983C135.488 725.769 135.618 725.455 135.618 725.04C135.618 724.73 135.568 724.473 135.468 724.268C135.372 724.058 135.222 723.901 135.017 723.796C134.812 723.691 134.545 723.639 134.217 723.639H132.371V726.298ZM132.371 722.162H133.581C134.132 722.162 134.549 722.062 134.832 721.861C135.115 721.661 135.256 721.362 135.256 720.966C135.256 720.524 135.117 720.2 134.839 719.995C134.565 719.79 134.151 719.688 133.595 719.688H132.371V722.162ZM140.957 728.109C140.228 728.109 139.642 727.911 139.2 727.515C138.763 727.114 138.544 726.574 138.544 725.895C138.544 725.434 138.667 725.026 138.913 724.671C139.164 724.315 139.537 724.037 140.034 723.837C140.531 723.636 141.148 723.536 141.887 723.536H142.769V723.044C142.769 722.716 142.673 722.445 142.481 722.23C142.295 722.016 142.007 721.909 141.62 721.909C141.433 721.909 141.262 721.932 141.107 721.978C140.957 722.023 140.818 722.089 140.69 722.176L140.533 723.133H138.975L138.947 721.15C139.348 720.945 139.777 720.774 140.232 720.638C140.688 720.501 141.194 720.433 141.75 720.433C142.739 720.433 143.521 720.66 144.095 721.116C144.669 721.572 144.956 722.221 144.956 723.064V725.963C144.956 726.068 144.956 726.17 144.956 726.271C144.961 726.366 144.972 726.46 144.99 726.551L145.77 726.674V727.966H143.145C143.09 727.861 143.033 727.738 142.974 727.597C142.914 727.455 142.873 727.314 142.851 727.173C142.618 727.46 142.352 727.688 142.051 727.856C141.75 728.025 141.385 728.109 140.957 728.109ZM141.586 726.53C141.814 726.53 142.035 726.48 142.249 726.38C142.463 726.28 142.636 726.143 142.769 725.97V724.849H141.9C141.518 724.849 141.224 724.935 141.019 725.108C140.818 725.282 140.718 725.496 140.718 725.751C140.718 725.997 140.795 726.188 140.95 726.325C141.11 726.462 141.322 726.53 141.586 726.53ZM148.189 730.953C148.003 730.953 147.807 730.937 147.602 730.905C147.401 730.873 147.203 730.83 147.007 730.775L147.26 729.189C147.351 729.208 147.442 729.221 147.533 729.23C147.629 729.244 147.72 729.251 147.807 729.251C148.094 729.251 148.344 729.185 148.559 729.053C148.777 728.925 148.928 728.734 149.01 728.479L149.126 728.116L146.699 722.005L145.749 721.868V720.569H149.919V721.868L149.01 722.005L150.09 725.143L150.172 725.382H150.213L151.491 721.991L150.623 721.868V720.569H154.465V721.868L153.61 721.991L150.814 729.06C150.682 729.397 150.507 729.709 150.288 729.996C150.069 730.283 149.789 730.513 149.447 730.687C149.11 730.864 148.691 730.953 148.189 730.953Z" fill="black"/>
<path d="M356.219 730.966V729.674L356.93 729.571L359.999 721.013H362.303L365.365 729.571L366.069 729.674V730.966H362.528V729.674L363.198 729.551L362.822 728.32H359.466L359.104 729.551L359.773 729.674V730.966H356.219ZM359.958 726.748H362.33L361.264 723.521L361.161 723.2H361.12L361.011 723.549L359.958 726.748ZM368.954 731.109C368.184 731.109 367.578 730.866 367.136 730.378C366.694 729.886 366.473 729.127 366.473 728.102V725.08L365.673 724.868V723.569H366.473H368.66V728.115C368.66 728.562 368.744 728.892 368.913 729.106C369.082 729.316 369.339 729.421 369.686 729.421C369.923 729.421 370.141 729.375 370.342 729.284C370.547 729.193 370.72 729.059 370.861 728.881V725.08L370.021 724.868V723.569H370.861H373.049V729.462L373.958 729.674V730.966H371.142L370.998 730.077C370.761 730.41 370.469 730.665 370.123 730.843C369.781 731.021 369.392 731.109 368.954 731.109ZM377.629 731.116C376.9 731.116 376.341 730.92 375.954 730.528C375.567 730.132 375.373 729.505 375.373 728.648V725.094H374.402V723.569H375.373V721.751H377.547V723.569H378.839V725.094H377.547V728.642C377.547 728.906 377.604 729.095 377.718 729.209C377.836 729.318 377.996 729.373 378.196 729.373C378.297 729.373 378.399 729.366 378.504 729.353C378.609 729.339 378.704 729.325 378.791 729.312L378.955 730.918C378.75 730.977 378.534 731.025 378.306 731.062C378.082 731.098 377.857 731.116 377.629 731.116ZM383.07 731.109C382.323 731.109 381.683 730.952 381.149 730.638C380.621 730.319 380.215 729.877 379.933 729.312C379.655 728.742 379.516 728.083 379.516 727.336V727.199C379.516 726.461 379.655 725.809 379.933 725.244C380.215 724.679 380.621 724.237 381.149 723.918C381.678 723.594 382.314 723.433 383.057 723.433C383.799 723.433 384.435 723.592 384.964 723.911C385.493 724.23 385.896 724.672 386.174 725.237C386.456 725.802 386.598 726.456 386.598 727.199V727.336C386.598 728.079 386.456 728.735 386.174 729.305C385.896 729.87 385.493 730.312 384.964 730.631C384.44 730.95 383.809 731.109 383.07 731.109ZM383.07 729.441C383.389 729.441 383.647 729.355 383.843 729.182C384.043 729.008 384.189 728.765 384.28 728.45C384.376 728.136 384.424 727.764 384.424 727.336V727.199C384.424 726.785 384.376 726.422 384.28 726.112C384.189 725.798 384.043 725.552 383.843 725.374C383.642 725.196 383.38 725.107 383.057 725.107C382.738 725.107 382.478 725.196 382.277 725.374C382.077 725.552 381.931 725.798 381.84 726.112C381.749 726.422 381.703 726.785 381.703 727.199V727.336C381.703 727.764 381.749 728.138 381.84 728.457C381.931 728.771 382.077 729.015 382.277 729.188C382.478 729.357 382.742 729.441 383.07 729.441ZM387.343 730.966V729.674L388.266 729.462V725.08L387.213 724.868V723.569H390.31L390.385 724.547C390.626 724.196 390.923 723.923 391.273 723.727C391.624 723.531 392.032 723.433 392.497 723.433C392.962 723.433 393.361 723.535 393.693 723.74C394.031 723.945 394.286 724.255 394.459 724.67C394.682 724.278 394.974 723.975 395.334 723.761C395.694 723.542 396.116 723.433 396.599 723.433C397.323 723.433 397.893 723.679 398.308 724.171C398.722 724.659 398.93 725.408 398.93 726.42V729.462L399.853 729.674V730.966H395.963V729.674L396.749 729.462V726.413C396.749 725.921 396.669 725.584 396.51 725.401C396.355 725.215 396.125 725.121 395.819 725.121C395.56 725.121 395.334 725.187 395.143 725.319C394.951 725.447 394.799 725.622 394.685 725.846V729.462L395.402 729.674V730.966H391.793V729.674L392.511 729.462V726.413C392.511 725.93 392.431 725.595 392.271 725.408C392.117 725.217 391.884 725.121 391.574 725.121C391.328 725.121 391.109 725.171 390.918 725.271C390.731 725.367 390.574 725.508 390.446 725.695V729.462L391.232 729.674V730.966H387.343ZM402.936 731.109C402.206 731.109 401.621 730.911 401.179 730.515C400.741 730.114 400.522 729.574 400.522 728.895C400.522 728.434 400.646 728.026 400.892 727.671C401.142 727.315 401.516 727.037 402.013 726.837C402.509 726.636 403.127 726.536 403.865 726.536H404.747V726.044C404.747 725.716 404.651 725.445 404.46 725.23C404.273 725.016 403.986 724.909 403.599 724.909C403.412 724.909 403.241 724.932 403.086 724.978C402.936 725.023 402.797 725.089 402.669 725.176L402.512 726.133H400.953L400.926 724.15C401.327 723.945 401.755 723.774 402.211 723.638C402.667 723.501 403.173 723.433 403.729 723.433C404.717 723.433 405.499 723.66 406.073 724.116C406.647 724.572 406.935 725.221 406.935 726.064V728.963C406.935 729.068 406.935 729.17 406.935 729.271C406.939 729.366 406.951 729.46 406.969 729.551L407.748 729.674V730.966H405.123C405.068 730.861 405.011 730.738 404.952 730.597C404.893 730.455 404.852 730.314 404.829 730.173C404.597 730.46 404.33 730.688 404.029 730.856C403.729 731.025 403.364 731.109 402.936 731.109ZM403.564 729.53C403.792 729.53 404.013 729.48 404.228 729.38C404.442 729.28 404.615 729.143 404.747 728.97V727.849H403.879C403.496 727.849 403.202 727.935 402.997 728.108C402.797 728.282 402.696 728.496 402.696 728.751C402.696 728.997 402.774 729.188 402.929 729.325C403.088 729.462 403.3 729.53 403.564 729.53ZM411.043 731.116C410.314 731.116 409.756 730.92 409.368 730.528C408.981 730.132 408.787 729.505 408.787 728.648V725.094H407.816V723.569H408.787V721.751H410.961V723.569H412.253V725.094H410.961V728.642C410.961 728.906 411.018 729.095 411.132 729.209C411.25 729.318 411.41 729.373 411.61 729.373C411.711 729.373 411.813 729.366 411.918 729.353C412.023 729.339 412.118 729.325 412.205 729.312L412.369 730.918C412.164 730.977 411.948 731.025 411.72 731.062C411.496 731.098 411.271 731.116 411.043 731.116ZM413.23 730.966V729.674L414.146 729.462V725.08L413.101 724.868V723.569H416.334V729.462L417.25 729.674V730.966H413.23ZM414.078 722.086V720.302H416.334V722.086H414.078ZM421.352 731.109C420.632 731.109 420.009 730.95 419.485 730.631C418.966 730.307 418.565 729.865 418.282 729.305C418.004 728.74 417.865 728.095 417.865 727.37V727.186C417.865 726.452 418.009 725.802 418.296 725.237C418.583 724.672 418.986 724.23 419.506 723.911C420.025 723.592 420.636 723.433 421.338 723.433C422.021 723.433 422.609 723.537 423.102 723.747C423.594 723.957 423.988 724.189 424.284 724.444L424.257 726.666H422.616L422.343 725.333C422.252 725.242 422.131 725.167 421.98 725.107C421.83 725.048 421.689 725.019 421.557 725.019C421.201 725.019 420.912 725.103 420.688 725.271C420.47 725.436 420.308 725.677 420.203 725.996C420.103 726.315 420.053 726.712 420.053 727.186V727.37C420.053 727.867 420.114 728.268 420.237 728.573C420.36 728.874 420.522 729.095 420.723 729.236C420.928 729.373 421.144 729.441 421.372 729.441C421.696 729.441 421.949 729.359 422.131 729.195C422.318 729.027 422.452 728.787 422.534 728.478H424.387L424.414 728.519C424.318 729.075 424.154 729.546 423.922 729.934C423.694 730.316 423.373 730.608 422.958 730.809C422.543 731.009 422.008 731.109 421.352 731.109ZM427.736 731.109C427.007 731.109 426.422 730.911 425.979 730.515C425.542 730.114 425.323 729.574 425.323 728.895C425.323 728.434 425.446 728.026 425.692 727.671C425.943 727.315 426.317 727.037 426.813 726.837C427.31 726.636 427.928 726.536 428.666 726.536H429.548V726.044C429.548 725.716 429.452 725.445 429.261 725.23C429.074 725.016 428.787 724.909 428.399 724.909C428.213 724.909 428.042 724.932 427.887 724.978C427.736 725.023 427.597 725.089 427.47 725.176L427.312 726.133H425.754L425.727 724.15C426.128 723.945 426.556 723.774 427.012 723.638C427.467 723.501 427.973 723.433 428.529 723.433C429.518 723.433 430.3 723.66 430.874 724.116C431.448 724.572 431.735 725.221 431.735 726.064V728.963C431.735 729.068 431.735 729.17 431.735 729.271C431.74 729.366 431.751 729.46 431.77 729.551L432.549 729.674V730.966H429.924C429.869 730.861 429.812 730.738 429.753 730.597C429.694 730.455 429.653 730.314 429.63 730.173C429.397 730.46 429.131 730.688 428.83 730.856C428.529 731.025 428.165 731.109 427.736 731.109ZM428.365 729.53C428.593 729.53 428.814 729.48 429.028 729.38C429.243 729.28 429.416 729.143 429.548 728.97V727.849H428.68C428.297 727.849 428.003 727.935 427.798 728.108C427.597 728.282 427.497 728.496 427.497 728.751C427.497 728.997 427.575 729.188 427.729 729.325C427.889 729.462 428.101 729.53 428.365 729.53ZM433.041 730.966V729.674L433.964 729.462V721.812L432.904 721.601V720.302H436.151V729.462L437.067 729.674V730.966H433.041ZM437.512 730.966V729.674L438.435 729.462V721.812L437.375 721.601V720.302H440.622V729.462L441.538 729.674V730.966H437.512ZM444.279 733.953C444.092 733.953 443.896 733.937 443.691 733.905C443.491 733.873 443.293 733.83 443.097 733.775L443.35 732.189C443.441 732.208 443.532 732.221 443.623 732.23C443.719 732.244 443.81 732.251 443.896 732.251C444.184 732.251 444.434 732.185 444.648 732.053C444.867 731.925 445.018 731.734 445.1 731.479L445.216 731.116L442.789 725.005L441.839 724.868V723.569H446.009V724.868L445.1 725.005L446.18 728.143L446.262 728.382H446.303L447.581 724.991L446.713 724.868V723.569H450.555V724.868L449.7 724.991L446.904 732.06C446.772 732.397 446.597 732.709 446.378 732.996C446.159 733.283 445.879 733.513 445.537 733.687C445.2 733.864 444.781 733.953 444.279 733.953ZM361.004 749.109C359.992 749.109 359.133 748.907 358.427 748.501C357.725 748.095 357.187 747.533 356.813 746.812C356.444 746.088 356.26 745.252 356.26 744.304V743.907C356.26 742.914 356.442 742.041 356.807 741.289C357.176 740.533 357.704 739.94 358.393 739.512C359.085 739.083 359.91 738.869 360.867 738.869C361.564 738.869 362.239 738.969 362.891 739.17C363.547 739.37 364.121 739.68 364.613 740.1V742.362H363.027L362.706 741.063C362.537 740.909 362.307 740.781 362.016 740.681C361.724 740.58 361.391 740.53 361.018 740.53C360.466 740.53 359.997 740.674 359.609 740.961C359.227 741.243 358.933 741.638 358.728 742.144C358.527 742.645 358.427 743.228 358.427 743.894V744.304C358.427 744.942 358.529 745.498 358.734 745.972C358.939 746.441 359.238 746.806 359.63 747.065C360.022 747.325 360.505 747.455 361.079 747.455C361.398 747.455 361.701 747.423 361.988 747.359C362.28 747.296 362.515 747.22 362.692 747.134V745.637L361.414 745.514V743.996H364.88V748.07C364.397 748.398 363.829 748.654 363.178 748.836C362.531 749.018 361.806 749.109 361.004 749.109ZM369.378 749.109C368.662 749.109 368.038 748.954 367.505 748.645C366.972 748.33 366.557 747.902 366.261 747.359C365.969 746.812 365.823 746.193 365.823 745.5V745.233C365.823 744.495 365.958 743.839 366.227 743.265C366.495 742.69 366.883 742.242 367.389 741.918C367.895 741.59 368.501 741.428 369.207 741.433C369.877 741.433 370.442 741.562 370.902 741.822C371.363 742.082 371.711 742.463 371.948 742.964C372.19 743.461 372.311 744.067 372.311 744.782V745.944H368.093L368.086 745.985C368.113 746.268 368.191 746.519 368.318 746.737C368.451 746.951 368.631 747.122 368.858 747.25C369.091 747.378 369.373 747.441 369.706 747.441C370.048 747.441 370.371 747.4 370.677 747.318C370.987 747.236 371.299 747.109 371.613 746.936L372.16 748.269C371.841 748.51 371.445 748.711 370.971 748.87C370.501 749.03 369.97 749.109 369.378 749.109ZM368.1 744.543H370.287V744.365C370.287 744.083 370.253 743.843 370.185 743.647C370.121 743.447 370.011 743.294 369.856 743.189C369.706 743.085 369.506 743.032 369.255 743.032C369 743.032 368.79 743.096 368.626 743.224C368.462 743.351 368.337 743.527 368.25 743.75C368.168 743.973 368.111 744.226 368.079 744.509L368.1 744.543ZM373.097 748.966V747.674L374.013 747.462V743.08L372.967 742.868V741.569H376.063L376.152 742.615C376.398 742.242 376.701 741.952 377.062 741.747C377.422 741.537 377.832 741.433 378.292 741.433C379.003 741.433 379.563 741.667 379.974 742.137C380.384 742.606 380.589 743.347 380.589 744.358V747.462L381.498 747.674V748.966H377.608V747.674L378.395 747.462V744.358C378.395 743.912 378.303 743.595 378.121 743.408C377.943 743.217 377.684 743.121 377.342 743.121C377.087 743.121 376.863 743.174 376.672 743.278C376.485 743.379 376.328 743.524 376.2 743.716V747.462L376.911 747.674V748.966H373.097ZM385.593 749.109C384.877 749.109 384.253 748.954 383.72 748.645C383.187 748.33 382.772 747.902 382.476 747.359C382.184 746.812 382.038 746.193 382.038 745.5V745.233C382.038 744.495 382.173 743.839 382.441 743.265C382.71 742.69 383.098 742.242 383.604 741.918C384.109 741.59 384.715 741.428 385.422 741.433C386.092 741.433 386.657 741.562 387.117 741.822C387.577 742.082 387.926 742.463 388.163 742.964C388.405 743.461 388.525 744.067 388.525 744.782V745.944H384.308L384.301 745.985C384.328 746.268 384.406 746.519 384.533 746.737C384.665 746.951 384.845 747.122 385.073 747.25C385.306 747.378 385.588 747.441 385.921 747.441C386.263 747.441 386.586 747.4 386.892 747.318C387.201 747.236 387.514 747.109 387.828 746.936L388.375 748.269C388.056 748.51 387.66 748.711 387.186 748.87C386.716 749.03 386.185 749.109 385.593 749.109ZM384.314 744.543H386.502V744.365C386.502 744.083 386.468 743.843 386.399 743.647C386.336 743.447 386.226 743.294 386.071 743.189C385.921 743.085 385.72 743.032 385.47 743.032C385.215 743.032 385.005 743.096 384.841 743.224C384.677 743.351 384.551 743.527 384.465 743.75C384.383 743.973 384.326 744.226 384.294 744.509L384.314 744.543ZM389.612 748.966V747.674L390.521 747.462V743.08L389.482 742.868V741.569H392.572L392.641 742.479L392.654 742.656C392.827 742.242 393.042 741.934 393.297 741.733C393.552 741.533 393.867 741.433 394.24 741.433C394.35 741.433 394.473 741.442 394.609 741.46C394.751 741.478 394.883 741.506 395.006 741.542L394.78 743.552L393.775 743.504C393.511 743.49 393.301 743.527 393.146 743.613C392.992 743.7 392.846 743.832 392.709 744.01V747.462L393.625 747.674V748.966H389.612ZM397.863 749.109C397.134 749.109 396.549 748.911 396.106 748.515C395.669 748.114 395.45 747.574 395.45 746.895C395.45 746.434 395.573 746.026 395.819 745.671C396.07 745.315 396.444 745.037 396.94 744.837C397.437 744.636 398.055 744.536 398.793 744.536H399.675V744.044C399.675 743.716 399.579 743.445 399.388 743.23C399.201 743.016 398.914 742.909 398.526 742.909C398.34 742.909 398.169 742.932 398.014 742.978C397.863 743.023 397.724 743.089 397.597 743.176L397.439 744.133H395.881L395.854 742.15C396.255 741.945 396.683 741.774 397.139 741.638C397.594 741.501 398.1 741.433 398.656 741.433C399.645 741.433 400.427 741.66 401.001 742.116C401.575 742.572 401.862 743.221 401.862 744.064V746.963C401.862 747.068 401.862 747.17 401.862 747.271C401.867 747.366 401.878 747.46 401.896 747.551L402.676 747.674V748.966H400.051C399.996 748.861 399.939 748.738 399.88 748.597C399.821 748.455 399.78 748.314 399.757 748.173C399.524 748.46 399.258 748.688 398.957 748.856C398.656 749.025 398.292 749.109 397.863 749.109ZM398.492 747.53C398.72 747.53 398.941 747.48 399.155 747.38C399.369 747.28 399.543 747.143 399.675 746.97V745.849H398.807C398.424 745.849 398.13 745.935 397.925 746.108C397.724 746.282 397.624 746.496 397.624 746.751C397.624 746.997 397.701 747.188 397.856 747.325C398.016 747.462 398.228 747.53 398.492 747.53ZM405.971 749.116C405.242 749.116 404.683 748.92 404.296 748.528C403.909 748.132 403.715 747.505 403.715 746.648V743.094H402.744V741.569H403.715V739.751H405.889V741.569H407.181V743.094H405.889V746.642C405.889 746.906 405.946 747.095 406.06 747.209C406.178 747.318 406.338 747.373 406.538 747.373C406.638 747.373 406.741 747.366 406.846 747.353C406.951 747.339 407.046 747.325 407.133 747.312L407.297 748.918C407.092 748.977 406.875 749.025 406.647 749.062C406.424 749.098 406.199 749.116 405.971 749.116ZM411.419 749.109C410.703 749.109 410.079 748.954 409.546 748.645C409.013 748.33 408.598 747.902 408.302 747.359C408.01 746.812 407.864 746.193 407.864 745.5V745.233C407.864 744.495 407.999 743.839 408.268 743.265C408.536 742.69 408.924 742.242 409.43 741.918C409.936 741.59 410.542 741.428 411.248 741.433C411.918 741.433 412.483 741.562 412.943 741.822C413.404 742.082 413.752 742.463 413.989 742.964C414.231 743.461 414.352 744.067 414.352 744.782V745.944H410.134L410.127 745.985C410.154 746.268 410.232 746.519 410.359 746.737C410.492 746.951 410.672 747.122 410.899 747.25C411.132 747.378 411.414 747.441 411.747 747.441C412.089 747.441 412.412 747.4 412.718 747.318C413.028 747.236 413.34 747.109 413.654 746.936L414.201 748.269C413.882 748.51 413.486 748.711 413.012 748.87C412.542 749.03 412.011 749.109 411.419 749.109ZM410.141 744.543H412.328V744.365C412.328 744.083 412.294 743.843 412.226 743.647C412.162 743.447 412.052 743.294 411.897 743.189C411.747 743.085 411.547 743.032 411.296 743.032C411.041 743.032 410.831 743.096 410.667 743.224C410.503 743.351 410.378 743.527 410.291 743.75C410.209 743.973 410.152 744.226 410.12 744.509L410.141 744.543ZM423.389 749.109C422.432 749.109 421.589 748.913 420.859 748.521C420.13 748.125 419.563 747.56 419.157 746.826C418.752 746.092 418.549 745.213 418.549 744.188V743.798C418.549 742.836 418.74 741.986 419.123 741.248C419.506 740.505 420.05 739.924 420.757 739.505C421.468 739.081 422.311 738.869 423.286 738.869C423.97 738.869 424.615 738.963 425.221 739.149C425.831 739.336 426.385 739.639 426.882 740.059V742.54H425.275L425.057 741.05C424.902 740.945 424.738 740.854 424.564 740.776C424.391 740.699 424.204 740.64 424.004 740.599C423.803 740.558 423.587 740.537 423.354 740.537C422.817 740.537 422.352 740.667 421.96 740.927C421.568 741.187 421.265 741.558 421.051 742.041C420.837 742.524 420.729 743.105 420.729 743.784V744.188C420.729 744.844 420.839 745.418 421.058 745.91C421.281 746.398 421.595 746.776 422.001 747.045C422.407 747.314 422.878 747.448 423.416 747.448C423.699 747.448 423.981 747.419 424.264 747.359C424.546 747.296 424.811 747.214 425.057 747.113L425.282 745.712H426.889V748.146C426.497 748.41 426.002 748.638 425.405 748.829C424.813 749.016 424.141 749.109 423.389 749.109ZM430.252 749.109C429.523 749.109 428.937 748.911 428.495 748.515C428.058 748.114 427.839 747.574 427.839 746.895C427.839 746.434 427.962 746.026 428.208 745.671C428.459 745.315 428.832 745.037 429.329 744.837C429.826 744.636 430.443 744.536 431.182 744.536H432.063V744.044C432.063 743.716 431.968 743.445 431.776 743.23C431.59 743.016 431.302 742.909 430.915 742.909C430.728 742.909 430.557 742.932 430.402 742.978C430.252 743.023 430.113 743.089 429.985 743.176L429.828 744.133H428.27L428.242 742.15C428.643 741.945 429.072 741.774 429.527 741.638C429.983 741.501 430.489 741.433 431.045 741.433C432.034 741.433 432.815 741.66 433.39 742.116C433.964 742.572 434.251 743.221 434.251 744.064V746.963C434.251 747.068 434.251 747.17 434.251 747.271C434.256 747.366 434.267 747.46 434.285 747.551L435.064 747.674V748.966H432.439C432.385 748.861 432.328 748.738 432.269 748.597C432.209 748.455 432.168 748.314 432.146 748.173C431.913 748.46 431.646 748.688 431.346 748.856C431.045 749.025 430.68 749.109 430.252 749.109ZM430.881 747.53C431.109 747.53 431.33 747.48 431.544 747.38C431.758 747.28 431.931 747.143 432.063 746.97V745.849H431.195C430.812 745.849 430.519 745.935 430.313 746.108C430.113 746.282 430.013 746.496 430.013 746.751C430.013 746.997 430.09 747.188 430.245 747.325C430.405 747.462 430.617 747.53 430.881 747.53ZM435.878 748.966V747.674L436.787 747.462V743.08L435.748 742.868V741.569H438.838L438.906 742.479L438.92 742.656C439.093 742.242 439.307 741.934 439.562 741.733C439.818 741.533 440.132 741.433 440.506 741.433C440.615 741.433 440.738 741.442 440.875 741.46C441.016 741.478 441.148 741.506 441.271 741.542L441.046 743.552L440.041 743.504C439.777 743.49 439.567 743.527 439.412 743.613C439.257 743.7 439.111 743.832 438.975 744.01V747.462L439.891 747.674V748.966H435.878ZM444.491 749.109C443.908 749.109 443.407 748.959 442.987 748.658C442.568 748.353 442.247 747.924 442.023 747.373C441.805 746.822 441.695 746.181 441.695 745.452V745.309C441.695 744.534 441.807 743.857 442.03 743.278C442.254 742.695 442.573 742.242 442.987 741.918C443.407 741.594 443.903 741.433 444.478 741.433C444.879 741.433 445.225 741.515 445.517 741.679C445.813 741.838 446.07 742.066 446.289 742.362V739.812L445.236 739.601V738.302H446.289H448.477V747.462L449.393 747.674V748.966H446.583L446.419 748.057C446.191 748.403 445.92 748.665 445.605 748.843C445.291 749.021 444.92 749.109 444.491 749.109ZM445.161 747.421C445.398 747.421 445.612 747.373 445.804 747.277C446 747.177 446.161 747.031 446.289 746.84V743.784C446.161 743.575 446.004 743.413 445.817 743.299C445.631 743.18 445.416 743.121 445.175 743.121C444.869 743.121 444.621 743.215 444.43 743.401C444.238 743.584 444.099 743.839 444.013 744.167C443.926 744.491 443.883 744.871 443.883 745.309V745.452C443.883 746.067 443.979 746.55 444.17 746.901C444.361 747.248 444.692 747.421 445.161 747.421ZM455.524 748.966V747.674L456.577 747.462V740.701H454.896L454.807 741.836H453.159V739.013H462.21V741.836H460.542L460.46 740.701H458.765V747.462L459.817 747.674V748.966H455.524ZM462.121 748.966V747.674L463.037 747.462V743.08L461.991 742.868V741.569H465.225V747.462L466.141 747.674V748.966H462.121ZM462.969 740.086V738.302H465.225V740.086H462.969ZM469.723 749.116C468.993 749.116 468.435 748.92 468.048 748.528C467.66 748.132 467.467 747.505 467.467 746.648V743.094H466.496V741.569H467.467V739.751H469.641V741.569H470.933V743.094H469.641V746.642C469.641 746.906 469.698 747.095 469.812 747.209C469.93 747.318 470.09 747.373 470.29 747.373C470.39 747.373 470.493 747.366 470.598 747.353C470.702 747.339 470.798 747.325 470.885 747.312L471.049 748.918C470.844 748.977 470.627 749.025 470.399 749.062C470.176 749.098 469.951 749.116 469.723 749.116ZM471.637 748.966V747.674L472.56 747.462V739.812L471.5 739.601V738.302H474.747V747.462L475.663 747.674V748.966H471.637ZM479.683 749.109C478.967 749.109 478.343 748.954 477.81 748.645C477.276 748.33 476.862 747.902 476.565 747.359C476.274 746.812 476.128 746.193 476.128 745.5V745.233C476.128 744.495 476.262 743.839 476.531 743.265C476.8 742.69 477.188 742.242 477.693 741.918C478.199 741.59 478.805 741.428 479.512 741.433C480.182 741.433 480.747 741.562 481.207 741.822C481.667 742.082 482.016 742.463 482.253 742.964C482.494 743.461 482.615 744.067 482.615 744.782V745.944H478.397L478.391 745.985C478.418 746.268 478.495 746.519 478.623 746.737C478.755 746.951 478.935 747.122 479.163 747.25C479.396 747.378 479.678 747.441 480.011 747.441C480.353 747.441 480.676 747.4 480.981 747.318C481.291 747.236 481.604 747.109 481.918 746.936L482.465 748.269C482.146 748.51 481.749 748.711 481.275 748.87C480.806 749.03 480.275 749.109 479.683 749.109ZM478.404 744.543H480.592V744.365C480.592 744.083 480.558 743.843 480.489 743.647C480.425 743.447 480.316 743.294 480.161 743.189C480.011 743.085 479.81 743.032 479.56 743.032C479.304 743.032 479.095 743.096 478.931 743.224C478.767 743.351 478.641 743.527 478.555 743.75C478.473 743.973 478.416 744.226 478.384 744.509L478.404 744.543ZM484.611 751.563L483.565 751.017C483.729 750.702 483.857 750.374 483.948 750.032C484.039 749.695 484.085 749.312 484.085 748.884V747.257H486.006L485.999 748.761C485.999 749.326 485.862 749.85 485.589 750.333C485.315 750.816 484.99 751.226 484.611 751.563ZM356.328 766.966V765.674L357.381 765.462V758.523L356.328 758.312V757.013H357.381H361.113C361.893 757.013 362.565 757.149 363.13 757.423C363.7 757.692 364.137 758.07 364.442 758.558C364.748 759.041 364.9 759.606 364.9 760.253C364.9 760.896 364.748 761.458 364.442 761.941C364.137 762.424 363.7 762.8 363.13 763.069C362.565 763.338 361.893 763.473 361.113 763.473H359.568V765.462L360.614 765.674V766.966H356.328ZM359.568 761.791H361.113C361.642 761.791 362.041 761.647 362.31 761.36C362.578 761.073 362.713 760.709 362.713 760.267C362.713 759.806 362.578 759.428 362.31 759.132C362.041 758.836 361.642 758.688 361.113 758.688H359.568V761.791ZM365.728 766.966V765.674L366.637 765.462V761.08L365.598 760.868V759.569H368.688L368.756 760.479L368.77 760.656C368.943 760.242 369.157 759.934 369.412 759.733C369.667 759.533 369.982 759.433 370.355 759.433C370.465 759.433 370.588 759.442 370.725 759.46C370.866 759.478 370.998 759.506 371.121 759.542L370.896 761.552L369.891 761.504C369.626 761.49 369.417 761.527 369.262 761.613C369.107 761.7 368.961 761.832 368.824 762.01V765.462L369.74 765.674V766.966H365.728ZM371.709 766.966V765.674L372.625 765.462V761.08L371.579 760.868V759.569H374.812V765.462L375.729 765.674V766.966H371.709ZM372.557 758.086V756.302H374.812V758.086H372.557ZM379.83 767.109C379.11 767.109 378.488 766.95 377.964 766.631C377.444 766.307 377.043 765.865 376.761 765.305C376.483 764.74 376.344 764.095 376.344 763.37V763.186C376.344 762.452 376.487 761.802 376.774 761.237C377.062 760.672 377.465 760.23 377.984 759.911C378.504 759.592 379.115 759.433 379.816 759.433C380.5 759.433 381.088 759.537 381.58 759.747C382.072 759.957 382.466 760.189 382.763 760.444L382.735 762.666H381.095L380.821 761.333C380.73 761.242 380.609 761.167 380.459 761.107C380.309 761.048 380.167 761.019 380.035 761.019C379.68 761.019 379.39 761.103 379.167 761.271C378.948 761.436 378.786 761.677 378.682 761.996C378.581 762.315 378.531 762.712 378.531 763.186V763.37C378.531 763.867 378.593 764.268 378.716 764.573C378.839 764.874 379.001 765.095 379.201 765.236C379.406 765.373 379.623 765.441 379.851 765.441C380.174 765.441 380.427 765.359 380.609 765.195C380.796 765.027 380.931 764.787 381.013 764.478H382.865L382.893 764.519C382.797 765.075 382.633 765.546 382.4 765.934C382.173 766.316 381.851 766.608 381.437 766.809C381.022 767.009 380.486 767.109 379.83 767.109ZM387.302 767.109C386.586 767.109 385.962 766.954 385.429 766.645C384.896 766.33 384.481 765.902 384.185 765.359C383.893 764.812 383.747 764.193 383.747 763.5V763.233C383.747 762.495 383.882 761.839 384.15 761.265C384.419 760.69 384.807 760.242 385.312 759.918C385.818 759.59 386.424 759.428 387.131 759.433C387.801 759.433 388.366 759.562 388.826 759.822C389.286 760.082 389.635 760.463 389.872 760.964C390.114 761.461 390.234 762.067 390.234 762.782V763.944H386.017L386.01 763.985C386.037 764.268 386.115 764.519 386.242 764.737C386.374 764.951 386.554 765.122 386.782 765.25C387.015 765.378 387.297 765.441 387.63 765.441C387.972 765.441 388.295 765.4 388.601 765.318C388.91 765.236 389.223 765.109 389.537 764.936L390.084 766.269C389.765 766.51 389.368 766.711 388.895 766.87C388.425 767.03 387.894 767.109 387.302 767.109ZM386.023 762.543H388.211V762.365C388.211 762.083 388.177 761.843 388.108 761.647C388.045 761.447 387.935 761.294 387.78 761.189C387.63 761.085 387.429 761.032 387.179 761.032C386.924 761.032 386.714 761.096 386.55 761.224C386.386 761.351 386.26 761.527 386.174 761.75C386.092 761.973 386.035 762.226 386.003 762.509L386.023 762.543ZM394.35 766.966V765.674L395.061 765.571L398.13 757.013H400.434L403.496 765.571L404.2 765.674V766.966H400.659V765.674L401.329 765.551L400.953 764.32H397.597L397.234 765.551L397.904 765.674V766.966H394.35ZM398.089 762.748H400.461L399.395 759.521L399.292 759.2H399.251L399.142 759.549L398.089 762.748ZM404.556 766.966V765.674L405.472 765.462V761.08L404.426 760.868V759.569H407.522L407.611 760.615C407.857 760.242 408.16 759.952 408.521 759.747C408.881 759.537 409.291 759.433 409.751 759.433C410.462 759.433 411.022 759.667 411.433 760.137C411.843 760.606 412.048 761.347 412.048 762.358V765.462L412.957 765.674V766.966H409.067V765.674L409.854 765.462V762.358C409.854 761.912 409.762 761.595 409.58 761.408C409.402 761.217 409.143 761.121 408.801 761.121C408.546 761.121 408.322 761.174 408.131 761.278C407.944 761.379 407.787 761.524 407.659 761.716V765.462L408.37 765.674V766.966H404.556ZM416.272 767.109C415.689 767.109 415.188 766.959 414.769 766.658C414.349 766.353 414.028 765.924 413.805 765.373C413.586 764.822 413.477 764.181 413.477 763.452V763.309C413.477 762.534 413.588 761.857 413.812 761.278C414.035 760.695 414.354 760.242 414.769 759.918C415.188 759.594 415.685 759.433 416.259 759.433C416.66 759.433 417.006 759.515 417.298 759.679C417.594 759.838 417.852 760.066 418.07 760.362V757.812L417.018 757.601V756.302H418.07H420.258V765.462L421.174 765.674V766.966H418.364L418.2 766.057C417.972 766.403 417.701 766.665 417.387 766.843C417.072 767.021 416.701 767.109 416.272 767.109ZM416.942 765.421C417.179 765.421 417.394 765.373 417.585 765.277C417.781 765.177 417.943 765.031 418.07 764.84V761.784C417.943 761.575 417.785 761.413 417.599 761.299C417.412 761.18 417.198 761.121 416.956 761.121C416.651 761.121 416.402 761.215 416.211 761.401C416.02 761.584 415.881 761.839 415.794 762.167C415.707 762.491 415.664 762.871 415.664 763.309V763.452C415.664 764.067 415.76 764.55 415.951 764.901C416.143 765.248 416.473 765.421 416.942 765.421ZM429.767 767.109C429.088 767.109 428.465 766.984 427.9 766.733C427.34 766.483 426.854 766.13 426.444 765.674C426.034 765.218 425.717 764.685 425.494 764.074C425.275 763.459 425.166 762.789 425.166 762.064V761.907C425.166 761.187 425.275 760.522 425.494 759.911C425.717 759.3 426.032 758.767 426.438 758.312C426.848 757.856 427.333 757.503 427.894 757.252C428.459 756.997 429.081 756.869 429.76 756.869C430.434 756.869 431.054 756.997 431.619 757.252C432.184 757.503 432.676 757.856 433.096 758.312C433.515 758.767 433.839 759.3 434.066 759.911C434.294 760.522 434.408 761.187 434.408 761.907V762.064C434.408 762.789 434.294 763.459 434.066 764.074C433.839 764.685 433.515 765.218 433.096 765.674C432.681 766.13 432.191 766.483 431.626 766.733C431.061 766.984 430.441 767.109 429.767 767.109ZM429.767 765.435C430.3 765.435 430.749 765.293 431.113 765.011C431.482 764.728 431.76 764.336 431.947 763.835C432.134 763.329 432.228 762.739 432.228 762.064V761.894C432.228 761.233 432.132 760.652 431.94 760.15C431.754 759.649 431.476 759.257 431.106 758.975C430.742 758.692 430.293 758.551 429.76 758.551C429.213 758.551 428.762 758.692 428.406 758.975C428.051 759.253 427.786 759.642 427.613 760.144C427.44 760.64 427.354 761.224 427.354 761.894V762.064C427.354 762.739 427.44 763.329 427.613 763.835C427.791 764.341 428.058 764.735 428.413 765.018C428.773 765.296 429.224 765.435 429.767 765.435ZM438.209 767.116C437.48 767.116 436.922 766.92 436.534 766.528C436.147 766.132 435.953 765.505 435.953 764.648V761.094H434.982V759.569H435.953V757.751H438.127V759.569H439.419V761.094H438.127V764.642C438.127 764.906 438.184 765.095 438.298 765.209C438.416 765.318 438.576 765.373 438.776 765.373C438.877 765.373 438.979 765.366 439.084 765.353C439.189 765.339 439.285 765.325 439.371 765.312L439.535 766.918C439.33 766.977 439.114 767.025 438.886 767.062C438.662 767.098 438.437 767.116 438.209 767.116ZM440.157 766.966V765.674L441.073 765.462V757.812L440.021 757.601V756.302H443.247V760.499C443.475 760.162 443.755 759.9 444.088 759.713C444.425 759.526 444.812 759.433 445.25 759.433C445.979 759.433 446.56 759.683 446.993 760.185C447.426 760.686 447.643 761.461 447.643 762.509V765.462L448.559 765.674V766.966H444.669V765.674L445.455 765.462V762.495C445.455 761.985 445.364 761.629 445.182 761.429C444.999 761.224 444.735 761.121 444.389 761.121C444.147 761.121 443.928 761.169 443.732 761.265C443.536 761.356 443.375 761.495 443.247 761.682V765.462L444.033 765.674V766.966H440.157ZM452.64 767.109C451.924 767.109 451.3 766.954 450.767 766.645C450.233 766.33 449.819 765.902 449.522 765.359C449.231 764.812 449.085 764.193 449.085 763.5V763.233C449.085 762.495 449.219 761.839 449.488 761.265C449.757 760.69 450.145 760.242 450.65 759.918C451.156 759.59 451.762 759.428 452.469 759.433C453.139 759.433 453.704 759.562 454.164 759.822C454.624 760.082 454.973 760.463 455.21 760.964C455.451 761.461 455.572 762.067 455.572 762.782V763.944H451.354L451.348 763.985C451.375 764.268 451.452 764.519 451.58 764.737C451.712 764.951 451.892 765.122 452.12 765.25C452.353 765.378 452.635 765.441 452.968 765.441C453.31 765.441 453.633 765.4 453.938 765.318C454.248 765.236 454.561 765.109 454.875 764.936L455.422 766.269C455.103 766.51 454.706 766.711 454.232 766.87C453.763 767.03 453.232 767.109 452.64 767.109ZM451.361 762.543H453.549V762.365C453.549 762.083 453.515 761.843 453.446 761.647C453.382 761.447 453.273 761.294 453.118 761.189C452.968 761.085 452.767 761.032 452.517 761.032C452.261 761.032 452.052 761.096 451.888 761.224C451.724 761.351 451.598 761.527 451.512 761.75C451.43 761.973 451.373 762.226 451.341 762.509L451.361 762.543ZM456.659 766.966V765.674L457.568 765.462V761.08L456.529 760.868V759.569H459.619L459.688 760.479L459.701 760.656C459.874 760.242 460.089 759.934 460.344 759.733C460.599 759.533 460.913 759.433 461.287 759.433C461.396 759.433 461.52 759.442 461.656 759.46C461.798 759.478 461.93 759.506 462.053 759.542L461.827 761.552L460.822 761.504C460.558 761.49 460.348 761.527 460.193 761.613C460.038 761.7 459.893 761.832 459.756 762.01V765.462L460.672 765.674V766.966H456.659ZM356.328 784.966V783.674L357.388 783.435V776.558L356.328 776.312V775.013H357.388H360.84C361.733 775.013 362.521 775.222 363.205 775.642C363.889 776.056 364.424 776.633 364.812 777.371C365.199 778.105 365.393 778.95 365.393 779.907V780.078C365.393 781.031 365.201 781.876 364.818 782.614C364.436 783.348 363.902 783.924 363.219 784.344C362.535 784.758 361.747 784.966 360.854 784.966H356.328ZM359.575 783.305H360.737C361.271 783.305 361.717 783.168 362.077 782.895C362.442 782.621 362.717 782.243 362.904 781.76C363.096 781.272 363.191 780.712 363.191 780.078V779.9C363.191 779.262 363.096 778.702 362.904 778.219C362.717 777.736 362.442 777.36 362.077 777.091C361.717 776.817 361.271 776.681 360.737 776.681H359.575V783.305ZM369.897 785.109C369.182 785.109 368.558 784.954 368.024 784.645C367.491 784.33 367.076 783.902 366.78 783.359C366.489 782.812 366.343 782.193 366.343 781.5V781.233C366.343 780.495 366.477 779.839 366.746 779.265C367.015 778.69 367.402 778.242 367.908 777.918C368.414 777.59 369.02 777.428 369.727 777.433C370.396 777.433 370.962 777.562 371.422 777.822C371.882 778.082 372.231 778.463 372.468 778.964C372.709 779.461 372.83 780.067 372.83 780.782V781.944H368.612L368.605 781.985C368.633 782.268 368.71 782.519 368.838 782.737C368.97 782.951 369.15 783.122 369.378 783.25C369.61 783.378 369.893 783.441 370.226 783.441C370.567 783.441 370.891 783.4 371.196 783.318C371.506 783.236 371.818 783.109 372.133 782.936L372.68 784.269C372.361 784.51 371.964 784.711 371.49 784.87C371.021 785.03 370.49 785.109 369.897 785.109ZM368.619 780.543H370.807V780.365C370.807 780.083 370.772 779.843 370.704 779.647C370.64 779.447 370.531 779.294 370.376 779.189C370.226 779.085 370.025 779.032 369.774 779.032C369.519 779.032 369.31 779.096 369.146 779.224C368.981 779.351 368.856 779.527 368.77 779.75C368.688 779.973 368.631 780.226 368.599 780.509L368.619 780.543ZM376.713 785.116C375.984 785.116 375.425 784.92 375.038 784.528C374.651 784.132 374.457 783.505 374.457 782.648V779.094H373.486V777.569H374.457V775.751H376.631V777.569H377.923V779.094H376.631V782.642C376.631 782.906 376.688 783.095 376.802 783.209C376.92 783.318 377.08 783.373 377.28 783.373C377.381 783.373 377.483 783.366 377.588 783.353C377.693 783.339 377.788 783.325 377.875 783.312L378.039 784.918C377.834 784.977 377.618 785.025 377.39 785.062C377.166 785.098 376.941 785.116 376.713 785.116ZM381.252 785.109C380.523 785.109 379.937 784.911 379.495 784.515C379.058 784.114 378.839 783.574 378.839 782.895C378.839 782.434 378.962 782.026 379.208 781.671C379.459 781.315 379.832 781.037 380.329 780.837C380.826 780.636 381.443 780.536 382.182 780.536H383.063V780.044C383.063 779.716 382.968 779.445 382.776 779.23C382.59 779.016 382.302 778.909 381.915 778.909C381.728 778.909 381.557 778.932 381.402 778.978C381.252 779.023 381.113 779.089 380.985 779.176L380.828 780.133H379.27L379.242 778.15C379.643 777.945 380.072 777.774 380.527 777.638C380.983 777.501 381.489 777.433 382.045 777.433C383.034 777.433 383.815 777.66 384.39 778.116C384.964 778.572 385.251 779.221 385.251 780.064V782.963C385.251 783.068 385.251 783.17 385.251 783.271C385.256 783.366 385.267 783.46 385.285 783.551L386.064 783.674V784.966H383.439C383.385 784.861 383.328 784.738 383.269 784.597C383.209 784.455 383.168 784.314 383.146 784.173C382.913 784.46 382.646 784.688 382.346 784.856C382.045 785.025 381.68 785.109 381.252 785.109ZM381.881 783.53C382.109 783.53 382.33 783.48 382.544 783.38C382.758 783.28 382.931 783.143 383.063 782.97V781.849H382.195C381.812 781.849 381.519 781.935 381.313 782.108C381.113 782.282 381.013 782.496 381.013 782.751C381.013 782.997 381.09 783.188 381.245 783.325C381.405 783.462 381.617 783.53 381.881 783.53ZM386.611 784.966V783.674L387.527 783.462V779.08L386.481 778.868V777.569H389.715V783.462L390.631 783.674V784.966H386.611ZM387.459 776.086V774.302H389.715V776.086H387.459ZM391.096 784.966V783.674L392.019 783.462V775.812L390.959 775.601V774.302H394.206V783.462L395.122 783.674V784.966H391.096ZM398.909 785.109C398.344 785.109 397.815 785.057 397.323 784.952C396.836 784.847 396.382 784.699 395.963 784.508L395.936 782.313H397.433L397.706 783.38C397.834 783.448 397.982 783.505 398.15 783.551C398.319 783.596 398.515 783.619 398.738 783.619C399.158 783.619 399.449 783.555 399.613 783.428C399.777 783.3 399.859 783.143 399.859 782.956C399.859 782.774 399.768 782.61 399.586 782.464C399.404 782.318 399.032 782.193 398.472 782.088C397.601 781.91 396.959 781.625 396.544 781.233C396.134 780.837 395.929 780.336 395.929 779.729C395.929 779.319 396.029 778.943 396.229 778.602C396.43 778.255 396.744 777.977 397.173 777.768C397.606 777.553 398.169 777.446 398.861 777.446C399.417 777.446 399.937 777.499 400.42 777.604C400.903 777.704 401.304 777.834 401.623 777.993L401.63 780.112H400.14L399.928 779.155C399.814 779.073 399.682 779.012 399.531 778.971C399.381 778.925 399.212 778.902 399.025 778.902C398.697 778.902 398.449 778.966 398.28 779.094C398.116 779.221 398.034 779.383 398.034 779.579C398.034 779.693 398.066 779.805 398.13 779.914C398.198 780.019 398.326 780.119 398.513 780.215C398.7 780.306 398.975 780.393 399.34 780.475C400.224 780.671 400.876 780.939 401.295 781.281C401.719 781.623 401.931 782.12 401.931 782.771C401.931 783.478 401.675 784.045 401.165 784.474C400.655 784.897 399.903 785.109 398.909 785.109Z" fill="black"/>
<defs>
<filter id="filter0_d_2125_12532" x="215.955" y="448.698" width="143.272" height="146.913" filterUnits="userSpaceOnUse" color-interpolation-filters="sRGB">
<feFlood flood-opacity="0" result="BackgroundImageFix"/>
<feColorMatrix in="SourceAlpha" type="matrix" values="0 0 0 0 0 0 0 0 0 0 0 0 0 0 0 0 0 0 127 0" result="hardAlpha"/>
<feOffset dy="12.2817"/>
<feGaussianBlur stdDeviation="6.14085"/>
<feComposite in2="hardAlpha" operator="out"/>
<feColorMatrix type="matrix" values="0 0 0 0 0 0 0 0 0 0 0 0 0 0 0 0 0 0 0.25 0"/>
<feBlend mode="normal" in2="BackgroundImageFix" result="effect1_dropShadow_2125_12532"/>
<feBlend mode="normal" in="SourceGraphic" in2="effect1_dropShadow_2125_12532" result="shape"/>
</filter>
<filter id="filter1_d_2125_12532" x="248.1" y="455.62" width="99.9101" height="131.847" filterUnits="userSpaceOnUse" color-interpolation-filters="sRGB">
<feFlood flood-opacity="0" result="BackgroundImageFix"/>
<feColorMatrix in="SourceAlpha" type="matrix" values="0 0 0 0 0 0 0 0 0 0 0 0 0 0 0 0 0 0 127 0" result="hardAlpha"/>
<feOffset dy="12.2817"/>
<feGaussianBlur stdDeviation="6.14085"/>
<feComposite in2="hardAlpha" operator="out"/>
<feColorMatrix type="matrix" values="0 0 0 0 0 0 0 0 0 0 0 0 0 0 0 0 0 0 0.25 0"/>
<feBlend mode="normal" in2="BackgroundImageFix" result="effect1_dropShadow_2125_12532"/>
<feBlend mode="normal" in="SourceGraphic" in2="effect1_dropShadow_2125_12532" result="shape"/>
</filter>
<filter id="filter2_d_2125_12532" x="252.131" y="461.655" width="107.791" height="136.262" filterUnits="userSpaceOnUse" color-interpolation-filters="sRGB">
<feFlood flood-opacity="0" result="BackgroundImageFix"/>
<feColorMatrix in="SourceAlpha" type="matrix" values="0 0 0 0 0 0 0 0 0 0 0 0 0 0 0 0 0 0 127 0" result="hardAlpha"/>
<feOffset dy="12.2817"/>
<feGaussianBlur stdDeviation="6.14085"/>
<feComposite in2="hardAlpha" operator="out"/>
<feColorMatrix type="matrix" values="0 0 0 0 0 0 0 0 0 0 0 0 0 0 0 0 0 0 0.25 0"/>
<feBlend mode="normal" in2="BackgroundImageFix" result="effect1_dropShadow_2125_12532"/>
<feBlend mode="normal" in="SourceGraphic" in2="effect1_dropShadow_2125_12532" result="shape"/>
</filter>
<filter id="filter3_d_2125_12532" x="252.169" y="471.903" width="115.8" height="140.043" filterUnits="userSpaceOnUse" color-interpolation-filters="sRGB">
<feFlood flood-opacity="0" result="BackgroundImageFix"/>
<feColorMatrix in="SourceAlpha" type="matrix" values="0 0 0 0 0 0 0 0 0 0 0 0 0 0 0 0 0 0 127 0" result="hardAlpha"/>
<feOffset dy="12.2817"/>
<feGaussianBlur stdDeviation="6.14085"/>
<feComposite in2="hardAlpha" operator="out"/>
<feColorMatrix type="matrix" values="0 0 0 0 0 0 0 0 0 0 0 0 0 0 0 0 0 0 0.25 0"/>
<feBlend mode="normal" in2="BackgroundImageFix" result="effect1_dropShadow_2125_12532"/>
<feBlend mode="normal" in="SourceGraphic" in2="effect1_dropShadow_2125_12532" result="shape"/>
</filter>
<linearGradient id="paint0_linear_2125_12532" x1="286" y1="352.333" x2="286" y2="682.969" gradientUnits="userSpaceOnUse">
<stop stop-color="#5347C2"/>
<stop offset="1" stop-color="#00035C"/>
</linearGradient>
<linearGradient id="paint1_linear_2125_12532" x1="440.192" y1="524.049" x2="120.192" y2="524.049" gradientUnits="userSpaceOnUse">
<stop stop-color="#00035C"/>
<stop offset="1" stop-color="#5347C2"/>
</linearGradient>
<linearGradient id="paint2_linear_2125_12532" x1="275.195" y1="683.171" x2="275.195" y2="352.536" gradientUnits="userSpaceOnUse">
<stop stop-color="#5347C2"/>
<stop offset="1" stop-color="#00035C"/>
</linearGradient>
<linearGradient id="paint3_linear_2125_12532" x1="122" y1="512.485" x2="442" y2="512.485" gradientUnits="userSpaceOnUse">
<stop stop-color="#00035C"/>
<stop offset="1" stop-color="#5347C2"/>
</linearGradient>
<linearGradient id="paint4_linear_2125_12532" x1="280.207" y1="335.005" x2="280.207" y2="703.39" gradientUnits="userSpaceOnUse">
<stop stop-color="#FF6D03" stop-opacity="0.64"/>
<stop offset="1" stop-color="#E686A6" stop-opacity="0.56"/>
</linearGradient>
</defs>
</svg>
