<svg width="17" height="16" viewBox="0 0 17 16" fill="none" xmlns="http://www.w3.org/2000/svg">
<path d="M9.39606 3.20997V5.11302C9.39606 5.54819 9.04533 5.89892 8.61016 5.89892H2.71266C2.271 5.89892 1.92676 5.5352 1.92676 5.10003C1.93325 4.36609 2.22553 3.6971 2.71266 3.20997C3.19979 2.72284 3.87527 2.42407 4.61571 2.42407H8.61016C9.04533 2.42407 9.39606 2.7748 9.39606 3.20997Z" fill="#292D32"/>
<path d="M1.92676 7.65919V10.9067C1.92676 12.3941 3.12834 13.5957 4.61571 13.5957H12.2214C13.7088 13.5957 14.9169 12.3876 14.9169 10.9002V7.65919C14.9169 7.22402 14.5661 6.87329 14.131 6.87329H2.71266C2.27749 6.87329 1.92676 7.22402 1.92676 7.65919ZM5.82379 11.4198H4.52478C4.25848 11.4198 4.03765 11.199 4.03765 10.9327C4.03765 10.6664 4.25848 10.4456 4.52478 10.4456H5.82379C6.09008 10.4456 6.31092 10.6664 6.31092 10.9327C6.31092 11.199 6.09008 11.4198 5.82379 11.4198ZM10.0456 11.4198H7.44755C7.18125 11.4198 6.96042 11.199 6.96042 10.9327C6.96042 10.6664 7.18125 10.4456 7.44755 10.4456H10.0456C10.3119 10.4456 10.5327 10.6664 10.5327 10.9327C10.5327 11.199 10.3119 11.4198 10.0456 11.4198Z" fill="#292D32"/>
<path d="M13.5984 1.35254H11.6889C10.864 1.35254 10.3704 1.84616 10.3704 2.67103V4.58058C10.3704 5.40545 10.864 5.89907 11.6889 5.89907H13.5984C14.4233 5.89907 14.9169 5.40545 14.9169 4.58058V2.67103C14.9169 1.84616 14.4233 1.35254 13.5984 1.35254ZM12.3254 4.97028C12.3059 4.98977 12.2604 5.01575 12.2279 5.01575L11.5525 5.11317C11.533 5.11967 11.507 5.11967 11.4875 5.11967C11.3901 5.11967 11.3056 5.08719 11.2472 5.02224C11.1693 4.9443 11.1368 4.83389 11.1563 4.71697L11.2537 4.04149C11.2602 4.00901 11.2797 3.96355 11.2992 3.94406L12.4033 2.83991C12.4228 2.88537 12.4423 2.93733 12.4618 2.98929C12.4877 3.04125 12.5137 3.08672 12.5397 3.13218C12.5592 3.17115 12.5852 3.21012 12.6112 3.2361C12.6371 3.27507 12.6631 3.31404 12.6826 3.33353C12.6956 3.35301 12.7021 3.35951 12.7086 3.366C12.767 3.43745 12.832 3.5024 12.8904 3.54787C12.9034 3.56086 12.9164 3.57385 12.9229 3.57385C12.9554 3.59983 12.9944 3.6323 13.0203 3.65179C13.0593 3.67777 13.0918 3.70375 13.1308 3.72323C13.1762 3.74921 13.2282 3.77519 13.2801 3.80117C13.3321 3.82715 13.3841 3.84664 13.4295 3.85963L12.3254 4.97028ZM13.8777 3.41796L13.6634 3.6323C13.6569 3.64529 13.6374 3.65179 13.6179 3.65179C13.6114 3.65179 13.6049 3.65179 13.5984 3.65179C13.1308 3.51539 12.7605 3.14517 12.6241 2.67753C12.6176 2.65155 12.6241 2.62557 12.6436 2.60608L12.858 2.39175C13.2087 2.04101 13.5399 2.04751 13.8842 2.39175C14.0595 2.56711 14.144 2.73598 14.144 2.90486C14.1375 3.07373 14.0531 3.2426 13.8777 3.41796Z" fill="#292D32"/>
</svg>
