<svg width="24" height="25" viewBox="0 0 24 25" fill="none" xmlns="http://www.w3.org/2000/svg">
<path d="M17 21.8948H7C3 21.8948 2 20.8948 2 16.8948V8.89478C2 4.89478 3 3.89478 7 3.89478H17C21 3.89478 22 4.89478 22 8.89478V16.8948C22 20.8948 21 21.8948 17 21.8948Z" fill="#5347C2" stroke="#5347C2" stroke-width="1.5" stroke-linecap="round" stroke-linejoin="round"/>
<path d="M14 8.89478H19" stroke="white" stroke-width="1.5" stroke-linecap="round" stroke-linejoin="round"/>
<path d="M15 12.8948H19" stroke="white" stroke-width="1.5" stroke-linecap="round" stroke-linejoin="round"/>
<path d="M17 16.8948H19" stroke="white" stroke-width="1.5" stroke-linecap="round" stroke-linejoin="round"/>
<path d="M8.49994 12.1847C9.49958 12.1847 10.3099 11.3743 10.3099 10.3747C10.3099 9.37506 9.49958 8.5647 8.49994 8.5647C7.50031 8.5647 6.68994 9.37506 6.68994 10.3747C6.68994 11.3743 7.50031 12.1847 8.49994 12.1847Z" stroke="white" stroke-width="1.5" stroke-linecap="round" stroke-linejoin="round"/>
<path d="M12 17.2248C11.86 15.7748 10.71 14.6348 9.26 14.5048C8.76 14.4548 8.25 14.4548 7.74 14.5048C6.29 14.6448 5.14 15.7748 5 17.2248" stroke="white" stroke-width="1.5" stroke-linecap="round" stroke-linejoin="round"/>
</svg>
