<svg width="20" height="16" viewBox="0 0 20 16" fill="none" xmlns="http://www.w3.org/2000/svg">
<path d="M3.25 0C2.38805 0 1.5614 0.34241 0.951903 0.951903C0.34241 1.5614 0 2.38805 0 3.25V12.75C0 13.612 0.34241 14.4386 0.951903 15.0481C1.5614 15.6576 2.38805 16 3.25 16H16.75C17.1768 16 17.5994 15.9159 17.9937 15.7526C18.388 15.5893 18.7463 15.3499 19.0481 15.0481C19.3499 14.7463 19.5893 14.388 19.7526 13.9937C19.9159 13.5994 20 13.1768 20 12.75V3.25C20 2.8232 19.9159 2.40059 19.7526 2.00628C19.5893 1.61197 19.3499 1.25369 19.0481 0.951903C18.7463 0.650112 18.388 0.410719 17.9937 0.247392C17.5994 0.0840639 17.1768 0 16.75 0H3.25ZM3 3.75C3 3.55109 3.07902 3.36032 3.21967 3.21967C3.36032 3.07902 3.55109 3 3.75 3H9.25C9.44891 3 9.63968 3.07902 9.78033 3.21967C9.92098 3.36032 10 3.55109 10 3.75C10 3.94891 9.92098 4.13968 9.78033 4.28033C9.63968 4.42098 9.44891 4.5 9.25 4.5H3.75C3.55109 4.5 3.36032 4.42098 3.21967 4.28033C3.07902 4.13968 3 3.94891 3 3.75ZM4 9H11C11.2652 9 11.5196 9.10536 11.7071 9.29289C11.8946 9.48043 12 9.73478 12 10V12C12 12.2652 11.8946 12.5196 11.7071 12.7071C11.5196 12.8946 11.2652 13 11 13H4C3.73478 13 3.48043 12.8946 3.29289 12.7071C3.10536 12.5196 3 12.2652 3 12V10C3 9.73478 3.10536 9.48043 3.29289 9.29289C3.48043 9.10536 3.73478 9 4 9ZM3.75 5.5H14.25C14.4489 5.5 14.6397 5.57902 14.7803 5.71967C14.921 5.86032 15 6.05109 15 6.25C15 6.44891 14.921 6.63968 14.7803 6.78033C14.6397 6.92098 14.4489 7 14.25 7H3.75C3.55109 7 3.36032 6.92098 3.21967 6.78033C3.07902 6.63968 3 6.44891 3 6.25C3 6.05109 3.07902 5.86032 3.21967 5.71967C3.36032 5.57902 3.55109 5.5 3.75 5.5Z" fill="#00035C"/>
</svg>
