<svg width="25" height="24" viewBox="0 0 25 24" fill="none" xmlns="http://www.w3.org/2000/svg">
<path d="M12.1094 7.24218C11.8252 7.53767 11.8346 8.01842 12.1301 8.30264L16.2274 11.1673L6.18246 11.3436C5.97037 11.3478 5.78821 11.4362 5.6565 11.5731C5.52478 11.7101 5.44352 11.8955 5.44765 12.1076C5.45562 12.5177 5.80157 12.8504 6.21162 12.8424L16.2566 12.6661L12.3919 15.7634C12.1077 16.0589 12.1171 16.5396 12.4126 16.8239C12.7081 17.1081 13.1888 17.0987 13.473 16.8032L18.5924 12.4014C18.6617 12.3293 18.7097 12.2506 18.7502 12.1508C18.8245 11.9725 18.8204 11.7604 18.7392 11.5852C18.6948 11.4871 18.6438 11.4102 18.5718 11.3409L13.1699 7.22155C12.8744 6.93733 12.3937 6.94668 12.1094 7.24218Z" fill="#292D32"/>
</svg>
