<svg width="14" height="16" viewBox="0 0 14 16" fill="none" xmlns="http://www.w3.org/2000/svg">
<path d="M13.5035 3.13981C12.3486 3.02503 11.1936 2.93895 10.0314 2.87438V2.86721L9.87363 1.93462C9.76602 1.27464 9.6082 0.284668 7.92955 0.284668H6.05003C4.37853 0.284668 4.22071 1.2316 4.10593 1.92745L3.95529 2.84569C3.28813 2.88873 2.62097 2.93177 1.95382 2.99634L0.490378 3.13981C0.189082 3.1685 -0.0261299 3.43393 0.00256498 3.72805C0.0312599 4.02218 0.289514 4.23739 0.59081 4.20869L2.05425 4.06522C5.8133 3.69219 9.60103 3.83566 13.4031 4.21587H13.4605C13.7331 4.21587 13.9698 4.00783 13.9985 3.72805C14.02 3.43393 13.8048 3.1685 13.5035 3.13981Z" fill="#BA1A1A"/>
<path d="M12.1818 5.22753C12.0096 5.04819 11.7728 4.94775 11.5289 4.94775H2.46139C2.21749 4.94775 1.97358 5.04819 1.80858 5.22753C1.64359 5.40687 1.55033 5.65078 1.56468 5.90186L2.00945 13.2621C2.08836 14.3525 2.18879 15.7155 4.69242 15.7155H9.29791C11.8015 15.7155 11.902 14.3597 11.9809 13.2621L12.4257 5.90903C12.44 5.65078 12.3467 5.40687 12.1818 5.22753ZM8.18599 12.1215H5.79714C5.50305 12.1215 5.25914 11.8776 5.25914 11.5834C5.25914 11.2893 5.50305 11.0454 5.79714 11.0454H8.18599C8.48011 11.0454 8.72402 11.2893 8.72402 11.5834C8.72402 11.8776 8.48011 12.1215 8.18599 12.1215ZM8.78858 9.25199H5.20176C4.90763 9.25199 4.66373 9.00808 4.66373 8.71396C4.66373 8.41984 4.90763 8.17593 5.20176 8.17593H8.78858C9.0827 8.17593 9.32661 8.41984 9.32661 8.71396C9.32661 9.00808 9.0827 9.25199 8.78858 9.25199Z" fill="#BA1A1A"/>
</svg>
