<svg width="74" height="28" viewBox="0 0 74 28" fill="none" xmlns="http://www.w3.org/2000/svg">
<rect width="73.5585" height="27.4845" fill="#F9FAFB"/>
<path d="M19.6971 14.8639C19.5914 12.6334 17.7757 11.7999 15.8415 11.7999C13.7548 11.7999 12.0774 12.7393 11.7873 14.8639H19.6971ZM11.7341 16.4489C11.8795 18.6208 13.5569 19.9 15.8677 19.9C17.4657 19.9 18.892 19.3307 19.3672 18.0571H22.1404C21.5992 20.6162 18.5346 21.4844 15.9068 21.4844C11.1129 21.4844 9 19.1365 9 15.9792C9 12.4928 11.1923 10.2036 15.9599 10.2036C19.7502 10.2036 22.5234 11.9645 22.5234 15.8152V16.4494L11.7341 16.4489Z" fill="#E53238"/>
<path d="M29.5109 19.8415C32.0068 19.8415 33.7105 18.2451 33.7105 15.8381C33.7105 13.4311 32.0068 11.8348 29.5109 11.8348C27.0278 11.8348 25.3114 13.4311 25.3114 15.8381C25.3114 18.2451 27.0278 19.8415 29.5109 19.8415ZM22.6291 6H25.3095V11.9987C26.6301 10.6017 28.4394 10.2026 30.2218 10.2026C33.2192 10.2026 36.5349 11.9987 36.5349 15.8729C36.5349 19.1179 33.8936 21.4845 30.1687 21.4845C28.214 21.4845 26.3919 20.8622 25.2563 19.6297C25.2563 20.1227 25.2307 20.6157 25.1641 21.0854H22.5234L22.6157 18.6203V6H22.6291Z" fill="#0064D2"/>
<path d="M43.2966 16.1323C40.8666 16.2029 39.3481 16.5901 39.3481 18.0224C39.3481 18.9504 40.1807 19.9478 42.2801 19.9478C45.0931 19.9478 46.5988 18.586 46.5988 16.3441V16.0976L43.2972 16.1329L43.2966 16.1323ZM49.2926 19.0904L49.3848 21.0858H46.8889C46.823 20.5809 46.7967 20.0765 46.7967 19.5829C45.4498 21.0619 43.8377 21.4844 41.6064 21.4844C38.3048 21.4844 36.5352 19.9347 36.5352 18.1386C36.5352 15.5323 38.9388 14.6169 43.132 14.5349C44.2739 14.5121 45.5548 14.5121 46.6116 14.5121V14.2536C46.6116 12.5161 45.3563 11.8056 43.1787 11.8056C41.5673 11.8056 40.3658 12.4045 40.2467 13.4259H37.4209C37.7245 10.8669 40.7488 10.2207 43.4029 10.2207C46.6052 10.2207 49.2798 11.2301 49.2798 14.224V19.0956L49.2926 19.0904Z" fill="#F5AF02"/>
<path d="M64.5587 6.98657L56.2512 21.4844H53.241L55.6312 17.4578L49.3848 6.98657H52.5282L57.1242 15.1686L61.7067 6.98657H64.5587Z" fill="#86B817"/>
</svg>
