<svg width="27" height="20" viewBox="0 0 27 20" fill="none" xmlns="http://www.w3.org/2000/svg">
<path fill-rule="evenodd" clip-rule="evenodd" d="M5.13867 10C5.13867 9.73478 5.24403 9.48043 5.43157 9.29289C5.6191 9.10536 5.87346 9 6.13867 9H18.4467C18.7119 9 18.9662 9.10536 19.1538 9.29289C19.3413 9.48043 19.4467 9.73478 19.4467 10C19.4467 10.2652 19.3413 10.5196 19.1538 10.7071C18.9662 10.8946 18.7119 11 18.4467 11H6.13867C5.87346 11 5.6191 10.8946 5.43157 10.7071C5.24403 10.5196 5.13867 10.2652 5.13867 10ZM5.13867 6C5.13867 5.73478 5.24403 5.48043 5.43157 5.29289C5.6191 5.10536 5.87346 5 6.13867 5H20.1387C20.4039 5 20.6582 5.10536 20.8458 5.29289C21.0333 5.48043 21.1387 5.73478 21.1387 6C21.1387 6.26522 21.0333 6.51957 20.8458 6.70711C20.6582 6.89464 20.4039 7 20.1387 7H6.13867C5.87346 7 5.6191 6.89464 5.43157 6.70711C5.24403 6.51957 5.13867 6.26522 5.13867 6ZM5.13867 14C5.13867 13.7348 5.24403 13.4804 5.43157 13.2929C5.6191 13.1054 5.87346 13 6.13867 13H16.4467C16.7119 13 16.9662 13.1054 17.1538 13.2929C17.3413 13.4804 17.4467 13.7348 17.4467 14C17.4467 14.2652 17.3413 14.5196 17.1538 14.7071C16.9662 14.8946 16.7119 15 16.4467 15H6.13867C5.87346 15 5.6191 14.8946 5.43157 14.7071C5.24403 14.5196 5.13867 14.2652 5.13867 14Z" fill="black"/>
</svg>
