<svg width="83" height="37" viewBox="0 0 83 37" fill="none" xmlns="http://www.w3.org/2000/svg">
<g filter="url(#filter0_d_2715_4249)">
<rect width="15.7487" height="23.5033" rx="3.38805" transform="matrix(0.662493 -0.749068 0.685992 0.72761 1.5957 11.7969)" fill="#E686A6"/>
</g>
<g filter="url(#filter1_d_2715_4249)">
<rect width="15.032" height="22.8175" rx="3.38805" transform="matrix(0.999937 0.0112363 -0.0136233 0.999907 9.63184 2.82617)" fill="#6454D6"/>
</g>
<g filter="url(#filter2_d_2715_4249)">
<rect width="15.0528" height="22.7891" rx="3.38805" transform="matrix(0.991194 0.132417 -0.115861 0.993265 12.4658 3.76465)" fill="#322B99"/>
</g>
<g filter="url(#filter3_d_2715_4249)">
<rect width="15.1163" height="22.7057" rx="3.38805" transform="matrix(0.964256 0.264972 -0.229381 0.973337 14.7402 5.61865)" fill="#FF9900"/>
</g>
<path d="M35.0033 14.463C34.7039 14.463 34.4157 14.4191 34.1389 14.3313C33.862 14.2435 33.5975 14.1085 33.3453 13.9261V12.876H33.862L33.9734 13.6492C34.1197 13.7393 34.2784 13.8091 34.4495 13.8586C34.6206 13.9081 34.8052 13.9329 35.0033 13.9329C35.2284 13.9329 35.4186 13.8991 35.5739 13.8316C35.7315 13.7618 35.8519 13.6661 35.9352 13.5446C36.0185 13.423 36.0602 13.2812 36.0602 13.1191C36.0602 12.9683 36.0242 12.8355 35.9521 12.7206C35.8801 12.6058 35.7608 12.5057 35.5942 12.4201C35.4299 12.3323 35.2048 12.2558 34.9189 12.1905C34.5812 12.1117 34.2953 12.0071 34.0612 11.8765C33.8293 11.7437 33.6526 11.5838 33.5311 11.397C33.4118 11.2079 33.3521 10.9918 33.3521 10.7487C33.3521 10.4921 33.4196 10.2625 33.5547 10.0599C33.692 9.85725 33.8822 9.69742 34.1254 9.58037C34.3685 9.46331 34.6521 9.40478 34.9763 9.40478C35.3207 9.40478 35.6246 9.45768 35.888 9.56348C36.1536 9.66703 36.3719 9.7931 36.543 9.94167V10.9243H36.0264L35.915 10.2219C35.8137 10.1409 35.6876 10.0734 35.5368 10.0193C35.386 9.96531 35.1991 9.93829 34.9763 9.93829C34.7872 9.93829 34.6206 9.97206 34.4765 10.0396C34.3325 10.1049 34.2199 10.1972 34.1389 10.3165C34.0578 10.4358 34.0173 10.5765 34.0173 10.7386C34.0173 10.8804 34.0533 11.0042 34.1254 11.11C34.1996 11.2158 34.3189 11.3092 34.4833 11.3903C34.6499 11.469 34.8716 11.5433 35.1485 11.6131C35.6662 11.7414 36.0579 11.9316 36.3235 12.1838C36.5914 12.4336 36.7254 12.7432 36.7254 13.1123C36.7254 13.3757 36.6545 13.6098 36.5126 13.8147C36.3708 14.0173 36.1705 14.176 35.9116 14.2908C35.655 14.4056 35.3522 14.463 35.0033 14.463ZM37.1778 15.7968V15.3679L37.6945 15.2734V11.2619L37.1441 11.1674V10.7386H38.2651L38.3259 11.1843C38.4475 11.0177 38.5949 10.8905 38.7682 10.8027C38.9438 10.7149 39.1464 10.671 39.376 10.671C39.6777 10.671 39.9354 10.7532 40.1493 10.9175C40.3631 11.0796 40.5263 11.3081 40.6389 11.603C40.7515 11.8956 40.8077 12.2389 40.8077 12.6329V12.7038C40.8077 13.0549 40.7503 13.3622 40.6355 13.6256C40.523 13.889 40.3609 14.0949 40.1493 14.2435C39.9377 14.3898 39.6833 14.463 39.3862 14.463C39.1611 14.463 38.963 14.4259 38.7919 14.3516C38.623 14.275 38.479 14.1625 38.3597 14.0139V15.2734L38.9405 15.3679V15.7968H37.1778ZM39.1802 13.943C39.4953 13.943 39.734 13.8282 39.896 13.5986C40.0581 13.369 40.1392 13.0707 40.1392 12.7038V12.6329C40.1392 12.3537 40.1031 12.1084 40.0311 11.8967C39.9591 11.6829 39.851 11.5152 39.7069 11.3936C39.5651 11.2721 39.3873 11.2113 39.1734 11.2113C38.9843 11.2113 38.8223 11.2541 38.6872 11.3396C38.5521 11.4251 38.443 11.5422 38.3597 11.6908V13.4703C38.443 13.6211 38.551 13.7381 38.6838 13.8214C38.8189 13.9025 38.9843 13.943 39.1802 13.943ZM43.1241 14.463C42.7865 14.463 42.4927 14.3865 42.2428 14.2334C41.9929 14.0781 41.7993 13.8631 41.662 13.5884C41.527 13.3138 41.4594 12.9964 41.4594 12.6362V12.4877C41.4594 12.141 41.5303 11.8315 41.6722 11.5591C41.8162 11.2844 42.0064 11.0683 42.2428 10.9108C42.4814 10.7509 42.7414 10.671 43.0228 10.671C43.3515 10.671 43.6261 10.7386 43.8467 10.8736C44.0696 11.0087 44.2373 11.1989 44.3498 11.4443C44.4624 11.6874 44.5187 11.9744 44.5187 12.3053V12.7206H42.1483L42.1381 12.7375C42.1426 12.9716 42.1832 13.1799 42.2597 13.3622C42.3385 13.5423 42.451 13.6841 42.5974 13.7877C42.7437 13.8912 42.9193 13.943 43.1241 13.943C43.3492 13.943 43.5462 13.9115 43.715 13.8484C43.8861 13.7832 44.0336 13.6942 44.1574 13.5817L44.4174 14.0139C44.2868 14.14 44.1135 14.2469 43.8974 14.3347C43.6835 14.4202 43.4258 14.463 43.1241 14.463ZM42.1685 12.2006H43.8535V12.1129C43.8535 11.9373 43.822 11.7808 43.7589 11.6435C43.6981 11.5039 43.6059 11.3948 43.482 11.316C43.3605 11.2349 43.2074 11.1944 43.0228 11.1944C42.8742 11.1944 42.7392 11.2383 42.6176 11.3261C42.4961 11.4116 42.3959 11.5287 42.3171 11.6773C42.2383 11.8258 42.1865 11.9947 42.1618 12.1838L42.1685 12.2006ZM46.8047 14.463C46.467 14.463 46.1732 14.3865 45.9234 14.2334C45.6735 14.0781 45.4799 13.8631 45.3426 13.5884C45.2075 13.3138 45.14 12.9964 45.14 12.6362V12.4877C45.14 12.141 45.2109 11.8315 45.3527 11.5591C45.4968 11.2844 45.687 11.0683 45.9234 10.9108C46.162 10.7509 46.422 10.671 46.7034 10.671C47.032 10.671 47.3067 10.7386 47.5273 10.8736C47.7501 11.0087 47.9178 11.1989 48.0304 11.4443C48.1429 11.6874 48.1992 11.9744 48.1992 12.3053V12.7206H45.8288L45.8187 12.7375C45.8232 12.9716 45.8637 13.1799 45.9402 13.3622C46.019 13.5423 46.1316 13.6841 46.2779 13.7877C46.4242 13.8912 46.5998 13.943 46.8047 13.943C47.0298 13.943 47.2267 13.9115 47.3956 13.8484C47.5667 13.7832 47.7141 13.6942 47.8379 13.5817L48.0979 14.0139C47.9674 14.14 47.794 14.2469 47.5779 14.3347C47.3641 14.4202 47.1063 14.463 46.8047 14.463ZM45.8491 12.2006H47.534V12.1129C47.534 11.9373 47.5025 11.7808 47.4395 11.6435C47.3787 11.5039 47.2864 11.3948 47.1626 11.316C47.041 11.2349 46.888 11.1944 46.7034 11.1944C46.5548 11.1944 46.4197 11.2383 46.2982 11.3261C46.1766 11.4116 46.0764 11.5287 45.9976 11.6773C45.9189 11.8258 45.8671 11.9947 45.8423 12.1838L45.8491 12.2006ZM50.2894 14.463C49.9922 14.463 49.7367 14.3898 49.5229 14.2435C49.3113 14.0949 49.1492 13.889 49.0366 13.6256C48.9241 13.3622 48.8678 13.0549 48.8678 12.7038V12.6329C48.8678 12.2412 48.9241 11.8979 49.0366 11.603C49.1492 11.3081 49.3124 11.0796 49.5262 10.9175C49.7401 10.7532 49.9967 10.671 50.2961 10.671C50.5122 10.671 50.7024 10.7115 50.8668 10.7926C51.0333 10.8714 51.1752 10.9862 51.2922 11.137V9.6479L50.7418 9.55335V9.12452H51.2922H51.9574V13.8721L52.5078 13.9666V14.3921H51.38L51.326 13.9565C51.2067 14.1231 51.0604 14.2491 50.887 14.3347C50.7159 14.4202 50.5167 14.463 50.2894 14.463ZM50.4582 13.9227C50.6563 13.9227 50.8229 13.8777 50.9579 13.7877C51.093 13.6976 51.2044 13.5704 51.2922 13.4061V11.711C51.2067 11.558 51.0953 11.4364 50.9579 11.3464C50.8206 11.2563 50.6563 11.2113 50.4649 11.2113C50.2533 11.2113 50.0789 11.2721 49.9416 11.3936C49.8042 11.5129 49.7018 11.6795 49.6343 11.8934C49.5668 12.105 49.533 12.3515 49.533 12.6329V12.7038C49.533 13.0707 49.6084 13.3656 49.7592 13.5884C49.9101 13.8113 50.143 13.9227 50.4582 13.9227ZM53.7606 15.8677C53.7088 15.8677 53.6412 15.8609 53.558 15.8474C53.4747 15.8362 53.4105 15.8249 53.3655 15.8137L53.433 15.2903C53.4713 15.2948 53.5242 15.2982 53.5917 15.3004C53.6593 15.3049 53.7054 15.3072 53.7302 15.3072C53.872 15.3072 53.9868 15.2531 54.0746 15.1451C54.1646 15.037 54.2479 14.8896 54.3245 14.7027L54.4832 14.3178L53.1899 11.2214L52.7982 11.1674V10.7386H54.3312V11.1674L53.8889 11.2349L54.6013 13.0617L54.7735 13.5378H54.7938L55.638 11.2349L55.172 11.1674V10.7386H56.6746V11.1674L56.2964 11.2214L54.858 14.9526C54.7904 15.1282 54.7083 15.2847 54.6115 15.422C54.5169 15.5615 54.3999 15.6707 54.2603 15.7495C54.123 15.8283 53.9564 15.8677 53.7606 15.8677ZM59.2375 14.463C58.7445 14.463 58.3325 14.3549 58.0016 14.1388C57.673 13.9227 57.4253 13.6267 57.2588 13.2508C57.0944 12.8748 57.0123 12.4483 57.0123 11.971V11.9001C57.0123 11.4184 57.0989 10.9907 57.2723 10.617C57.4456 10.2411 57.6943 9.94505 58.0185 9.72894C58.3427 9.51283 58.7299 9.40478 59.1801 9.40478C59.4975 9.40478 59.7879 9.45431 60.0512 9.55335C60.3146 9.6524 60.533 9.77846 60.7063 9.93154V10.9918H60.1762L60.1053 10.2152C60.0332 10.1589 59.9499 10.1116 59.8554 10.0734C59.7631 10.0351 59.6596 10.0058 59.5448 9.98557C59.4322 9.96531 59.3095 9.95518 59.1767 9.95518C58.8548 9.95518 58.5824 10.0385 58.3595 10.205C58.1367 10.3694 57.9679 10.5967 57.8531 10.8871C57.7382 11.1775 57.6808 11.5129 57.6808 11.8934V11.971C57.6808 12.383 57.7416 12.7353 57.8632 13.0279C57.987 13.3183 58.166 13.54 58.4001 13.6931C58.6364 13.8462 58.9234 13.9227 59.2611 13.9227C59.4187 13.9227 59.5729 13.9036 59.7237 13.8653C59.8745 13.8271 59.9995 13.7775 60.0985 13.7168L60.1728 13.0313H60.6928V14.0983C60.5082 14.2131 60.2876 14.3032 60.031 14.3685C59.7744 14.4315 59.5099 14.463 59.2375 14.463ZM62.5297 14.463C62.1493 14.463 61.86 14.3707 61.6619 14.1861C61.4638 13.9993 61.3648 13.737 61.3648 13.3994C61.3648 13.1675 61.4278 12.966 61.5539 12.7949C61.6822 12.6216 61.8668 12.4877 62.1076 12.3931C62.3485 12.2963 62.6366 12.2479 62.972 12.2479H63.6237V11.89C63.6237 11.6694 63.5562 11.4983 63.4211 11.3767C63.2883 11.2552 63.1004 11.1944 62.8572 11.1944C62.7042 11.1944 62.5714 11.2135 62.4588 11.2518C62.3462 11.2878 62.2438 11.3385 62.1515 11.4038L62.0806 11.9136H61.5674V11.0762C61.7317 10.9434 61.923 10.8432 62.1414 10.7757C62.3597 10.7059 62.6017 10.671 62.8674 10.671C63.3108 10.671 63.6586 10.7768 63.9108 10.9884C64.1629 11.2 64.2889 11.5028 64.2889 11.8967V13.656C64.2889 13.7033 64.2889 13.7494 64.2889 13.7944C64.2912 13.8394 64.2946 13.8845 64.2991 13.9295L64.6536 13.9666V14.3921H63.698C63.6778 14.293 63.662 14.2041 63.6508 14.1253C63.6395 14.0465 63.6316 13.9678 63.6271 13.889C63.4988 14.0533 63.3379 14.1906 63.1443 14.3009C62.9529 14.409 62.7481 14.463 62.5297 14.463ZM62.6276 13.9059C62.8482 13.9059 63.0497 13.853 63.2321 13.7472C63.4144 13.6413 63.545 13.5142 63.6237 13.3656V12.7038H62.9484C62.6423 12.7038 62.4127 12.7769 62.2596 12.9232C62.1065 13.0696 62.03 13.2328 62.03 13.4129C62.03 13.5727 62.0795 13.6954 62.1785 13.7809C62.2776 13.8642 62.4273 13.9059 62.6276 13.9059ZM65.1635 14.3921V13.9666L65.7139 13.8721V11.2619L65.1635 11.1674V10.7386H66.3082L66.3656 11.2045L66.3723 11.2687C66.4759 11.0819 66.6031 10.9355 66.7539 10.8297C66.907 10.7239 67.0814 10.671 67.2773 10.671C67.3471 10.671 67.418 10.6778 67.49 10.6913C67.5643 10.7025 67.6172 10.7138 67.6487 10.7251L67.5609 11.343L67.0983 11.316C66.9227 11.3047 66.7753 11.3452 66.656 11.4375C66.5367 11.5276 66.4444 11.6491 66.3791 11.8022V13.8721L66.9295 13.9666V14.3921H65.1635ZM69.4214 14.463C69.1243 14.463 68.8688 14.3898 68.6549 14.2435C68.4433 14.0949 68.2813 13.889 68.1687 13.6256C68.0562 13.3622 67.9999 13.0549 67.9999 12.7038V12.6329C67.9999 12.2412 68.0562 11.8979 68.1687 11.603C68.2813 11.3081 68.4445 11.0796 68.6583 10.9175C68.8722 10.7532 69.1288 10.671 69.4282 10.671C69.6443 10.671 69.8345 10.7115 69.9988 10.7926C70.1654 10.8714 70.3072 10.9862 70.4243 11.137V9.6479L69.8739 9.55335V9.12452H70.4243H71.0895V13.8721L71.6399 13.9666V14.3921H70.5121L70.4581 13.9565C70.3388 14.1231 70.1924 14.2491 70.0191 14.3347C69.848 14.4202 69.6488 14.463 69.4214 14.463ZM69.5903 13.9227C69.7884 13.9227 69.955 13.8777 70.09 13.7877C70.2251 13.6976 70.3365 13.5704 70.4243 13.4061V11.711C70.3388 11.558 70.2273 11.4364 70.09 11.3464C69.9527 11.2563 69.7884 11.2113 69.597 11.2113C69.3854 11.2113 69.211 11.2721 69.0736 11.3936C68.9363 11.5129 68.8339 11.6795 68.7664 11.8934C68.6988 12.105 68.6651 12.3515 68.6651 12.6329V12.7038C68.6651 13.0707 68.7405 13.3656 68.8913 13.5884C69.0421 13.8113 69.2751 13.9227 69.5903 13.9227ZM33.2305 23.3921V22.9666L33.7809 22.8721V18.9991L33.2305 18.9045V18.4757H33.7809H34.4461H34.9965V18.9045L34.4461 18.9991V22.8822H36.1851L36.2628 22.1056H36.7726V23.3921H33.2305ZM37.269 23.3921V22.9666L37.8194 22.8721V20.2619L37.269 20.1674V19.7386H38.4846V22.8721L39.035 22.9666V23.3921H37.269ZM37.7856 18.837V18.1245H38.4846V18.837H37.7856ZM40.9732 23.463C40.7278 23.463 40.4982 23.4382 40.2844 23.3887C40.0705 23.3392 39.8431 23.2627 39.6023 23.1591L39.5955 22.2913H40.0986L40.2236 22.8147C40.3496 22.8665 40.4712 22.9047 40.5883 22.9295C40.7076 22.952 40.8359 22.9633 40.9732 22.9633C41.2433 22.9633 41.4369 22.9115 41.554 22.8079C41.671 22.7044 41.7296 22.5761 41.7296 22.423C41.7296 22.2789 41.6699 22.1574 41.5506 22.0583C41.4335 21.957 41.2197 21.8715 40.909 21.8017C40.4678 21.7004 40.1425 21.5653 39.9332 21.3965C39.7261 21.2254 39.6225 20.998 39.6225 20.7144C39.6225 20.5163 39.6799 20.3396 39.7947 20.1843C39.9095 20.0267 40.0694 19.9018 40.2742 19.8095C40.4791 19.7172 40.7177 19.671 40.9901 19.671C41.267 19.671 41.5033 19.7025 41.6992 19.7656C41.8973 19.8286 42.0695 19.913 42.2158 20.0188L42.2496 20.8529H41.7498L41.6418 20.3666C41.563 20.3081 41.4696 20.2631 41.3615 20.2315C41.2535 20.2 41.1296 20.1843 40.9901 20.1843C40.783 20.1843 40.6141 20.2327 40.4836 20.3295C40.3553 20.4263 40.2911 20.5478 40.2911 20.6941C40.2911 20.7797 40.3091 20.854 40.3451 20.917C40.3834 20.98 40.4554 21.0374 40.5612 21.0892C40.667 21.1387 40.8224 21.1883 41.0272 21.2378C41.536 21.3571 41.8905 21.509 42.0909 21.6936C42.2935 21.8782 42.3948 22.1056 42.3948 22.3757C42.3948 22.6841 42.28 22.943 42.0503 23.1523C41.823 23.3594 41.4639 23.463 40.9732 23.463ZM44.235 23.4495C43.9649 23.4495 43.7499 23.3707 43.5901 23.2131C43.4325 23.0533 43.3537 22.7989 43.3537 22.45V20.2315H42.7763V19.7386H43.3537V18.8573H44.0189V19.7386H44.8124V20.2315H44.0189V22.45C44.0189 22.6256 44.0538 22.755 44.1236 22.8383C44.1934 22.9216 44.2868 22.9633 44.4039 22.9633C44.4827 22.9633 44.5704 22.9565 44.6672 22.943C44.764 22.9272 44.8395 22.9137 44.8935 22.9025L44.9846 23.3381C44.8879 23.3673 44.7685 23.3932 44.6267 23.4157C44.4872 23.4382 44.3566 23.4495 44.235 23.4495ZM47.0073 23.463C46.6696 23.463 46.3758 23.3865 46.126 23.2334C45.8761 23.0781 45.6825 22.8631 45.5452 22.5884C45.4101 22.3138 45.3426 21.9964 45.3426 21.6362V21.4877C45.3426 21.141 45.4135 20.8315 45.5553 20.5591C45.6994 20.2844 45.8896 20.0683 46.126 19.9108C46.3646 19.7509 46.6246 19.671 46.906 19.671C47.2346 19.671 47.5093 19.7386 47.7299 19.8736C47.9527 20.0087 48.1204 20.1989 48.233 20.4443C48.3455 20.6874 48.4018 20.9744 48.4018 21.3053V21.7206H46.0314L46.0213 21.7375C46.0258 21.9716 46.0663 22.1799 46.1428 22.3622C46.2216 22.5423 46.3342 22.6841 46.4805 22.7877C46.6268 22.8912 46.8024 22.943 47.0073 22.943C47.2324 22.943 47.4293 22.9115 47.5982 22.8484C47.7693 22.7832 47.9167 22.6942 48.0405 22.5817L48.3005 23.0139C48.17 23.14 47.9966 23.2469 47.7805 23.3347C47.5667 23.4202 47.3089 23.463 47.0073 23.463ZM46.0517 21.2006H47.7366V21.1129C47.7366 20.9373 47.7051 20.7808 47.6421 20.6435C47.5813 20.5039 47.489 20.3948 47.3652 20.316C47.2436 20.2349 47.0906 20.1944 46.906 20.1944C46.7574 20.1944 46.6223 20.2383 46.5008 20.3261C46.3792 20.4116 46.279 20.5287 46.2002 20.6773C46.1215 20.8258 46.0697 20.9947 46.0449 21.1838L46.0517 21.2006ZM48.9151 23.3921V22.9666L49.4655 22.8721V20.2619L48.9151 20.1674V19.7386H50.0597L50.1172 20.2045L50.1239 20.2687C50.2275 20.0819 50.3546 19.9355 50.5055 19.8297C50.6585 19.7239 50.833 19.671 51.0288 19.671C51.0986 19.671 51.1695 19.6778 51.2416 19.6913C51.3159 19.7025 51.3688 19.7138 51.4003 19.7251L51.3125 20.343L50.8499 20.316C50.6743 20.3047 50.5269 20.3452 50.4075 20.4375C50.2882 20.5276 50.1959 20.6491 50.1307 20.8022V22.8721L50.6811 22.9666V23.3921H48.9151ZM51.6265 23.3921V22.71H52.2917V23.3921H51.6265ZM53.0413 23.3921V22.9666L53.406 22.916L55.1247 18.4757H55.6954L57.3837 22.916L57.745 22.9666V23.3921H56.3336V22.9666L56.705 22.9025L56.3808 21.9975H54.4122L54.078 22.9025L54.4494 22.9666V23.3921H53.0413ZM54.6182 21.4404H56.1782L55.4556 19.4414L55.4151 19.33H55.3949L55.3543 19.4414L54.6182 21.4404ZM58.211 23.3921V22.9666L58.7614 22.8721V20.2619L58.211 20.1674V19.7386H59.4266V22.8721L59.977 22.9666V23.3921H58.211ZM58.7276 18.837V18.1245H59.4266V18.837H58.7276Z" fill="#00035C"/>
<defs>
<filter id="filter0_d_2715_4249" x="0.223151" y="1.46484" width="29.3017" height="31.3891" filterUnits="userSpaceOnUse" color-interpolation-filters="sRGB">
<feFlood flood-opacity="0" result="BackgroundImageFix"/>
<feColorMatrix in="SourceAlpha" type="matrix" values="0 0 0 0 0 0 0 0 0 0 0 0 0 0 0 0 0 0 127 0" result="hardAlpha"/>
<feOffset dy="2.71044"/>
<feGaussianBlur stdDeviation="1.35522"/>
<feComposite in2="hardAlpha" operator="out"/>
<feColorMatrix type="matrix" values="0 0 0 0 0 0 0 0 0 0 0 0 0 0 0 0 0 0 0.25 0"/>
<feBlend mode="normal" in2="BackgroundImageFix" result="effect1_dropShadow_2715_4249"/>
<feBlend mode="normal" in="SourceGraphic" in2="effect1_dropShadow_2715_4249" result="shape"/>
</filter>
<filter id="filter1_d_2715_4249" x="6.65674" y="2.86426" width="20.6709" height="28.3291" filterUnits="userSpaceOnUse" color-interpolation-filters="sRGB">
<feFlood flood-opacity="0" result="BackgroundImageFix"/>
<feColorMatrix in="SourceAlpha" type="matrix" values="0 0 0 0 0 0 0 0 0 0 0 0 0 0 0 0 0 0 127 0" result="hardAlpha"/>
<feOffset dy="2.71044"/>
<feGaussianBlur stdDeviation="1.35522"/>
<feComposite in2="hardAlpha" operator="out"/>
<feColorMatrix type="matrix" values="0 0 0 0 0 0 0 0 0 0 0 0 0 0 0 0 0 0 0.25 0"/>
<feBlend mode="normal" in2="BackgroundImageFix" result="effect1_dropShadow_2715_4249"/>
<feBlend mode="normal" in="SourceGraphic" in2="effect1_dropShadow_2715_4249" result="shape"/>
</filter>
<filter id="filter2_d_2715_4249" x="7.48389" y="4.18311" width="22.2432" height="29.2129" filterUnits="userSpaceOnUse" color-interpolation-filters="sRGB">
<feFlood flood-opacity="0" result="BackgroundImageFix"/>
<feColorMatrix in="SourceAlpha" type="matrix" values="0 0 0 0 0 0 0 0 0 0 0 0 0 0 0 0 0 0 127 0" result="hardAlpha"/>
<feOffset dy="2.71044"/>
<feGaussianBlur stdDeviation="1.35522"/>
<feComposite in2="hardAlpha" operator="out"/>
<feColorMatrix type="matrix" values="0 0 0 0 0 0 0 0 0 0 0 0 0 0 0 0 0 0 0.25 0"/>
<feBlend mode="normal" in2="BackgroundImageFix" result="effect1_dropShadow_2715_4249"/>
<feBlend mode="normal" in="SourceGraphic" in2="effect1_dropShadow_2715_4249" result="shape"/>
</filter>
<filter id="filter3_d_2715_4249" x="7.50635" y="6.39551" width="23.8349" height="29.9726" filterUnits="userSpaceOnUse" color-interpolation-filters="sRGB">
<feFlood flood-opacity="0" result="BackgroundImageFix"/>
<feColorMatrix in="SourceAlpha" type="matrix" values="0 0 0 0 0 0 0 0 0 0 0 0 0 0 0 0 0 0 127 0" result="hardAlpha"/>
<feOffset dy="2.71044"/>
<feGaussianBlur stdDeviation="1.35522"/>
<feComposite in2="hardAlpha" operator="out"/>
<feColorMatrix type="matrix" values="0 0 0 0 0 0 0 0 0 0 0 0 0 0 0 0 0 0 0.25 0"/>
<feBlend mode="normal" in2="BackgroundImageFix" result="effect1_dropShadow_2715_4249"/>
<feBlend mode="normal" in="SourceGraphic" in2="effect1_dropShadow_2715_4249" result="shape"/>
</filter>
</defs>
</svg>
