<svg width="50" height="50" viewBox="0 0 50 50" fill="none" xmlns="http://www.w3.org/2000/svg">
<g clip-path="url(#clip0_3031_20478)">
<path d="M23.75 20V28.75H15V20H23.75ZM23.75 40V31.25H15V40H23.75ZM35 20V28.75H26.25V20H35ZM35 40V31.25H26.25V40H35ZM15 11.25V5.625C15 3.20833 16.9583 1.25 19.375 1.25H30.625C33.0417 1.25 35 3.20833 35 5.625V11.25H48.125C48.6223 11.25 49.0992 11.4475 49.4508 11.7992C49.8025 12.1508 50 12.6277 50 13.125V41.875C50 42.7778 49.8222 43.6718 49.4767 44.506C49.1312 45.3401 48.6248 46.098 47.9864 46.7364C47.348 47.3748 46.5901 47.8812 45.7559 48.2267C44.9218 48.5722 44.0278 48.75 43.125 48.75H6.875C5.05164 48.75 3.30295 48.0257 2.01364 46.7364C0.724328 45.447 0 43.6984 0 41.875L0 13.125C0 12.6277 0.197544 12.1508 0.549175 11.7992C0.900805 11.4475 1.37772 11.25 1.875 11.25H15ZM18.75 5.625V11.25H31.25V5.625C31.25 5.45924 31.1842 5.30027 31.0669 5.18306C30.9497 5.06585 30.7908 5 30.625 5H19.375C19.2929 5 19.2117 5.01617 19.1358 5.04758C19.06 5.07898 18.9911 5.12502 18.9331 5.18306C18.875 5.2411 18.829 5.30999 18.7976 5.38582C18.7662 5.46165 18.75 5.54292 18.75 5.625ZM3.75 41.875C3.75 42.7038 4.07924 43.4987 4.66529 44.0847C5.25134 44.6708 6.0462 45 6.875 45H43.125C43.9538 45 44.7487 44.6708 45.3347 44.0847C45.9208 43.4987 46.25 42.7038 46.25 41.875V15H3.75V41.875Z" fill="#00035C"/>
</g>
<defs>
<clipPath id="clip0_3031_20478">
<rect width="50" height="50" fill="white"/>
</clipPath>
</defs>
</svg>
