<svg width="42" height="44" viewBox="0 0 42 44" fill="none" xmlns="http://www.w3.org/2000/svg">
<path d="M0.6875 2.80962V41.1885C0.687757 41.2718 0.712592 41.3531 0.75889 41.4223C0.805188 41.4915 0.870888 41.5455 0.947752 41.5776C1.02462 41.6096 1.10922 41.6182 1.19096 41.6023C1.2727 41.5864 1.34793 41.5468 1.40723 41.4883L21.3906 22L1.40723 2.50981C1.34793 2.45135 1.2727 2.4117 1.19096 2.39583C1.10922 2.37995 1.02462 2.38857 0.947752 2.42058C0.870888 2.4526 0.805188 2.5066 0.75889 2.57581C0.712592 2.64502 0.687757 2.72635 0.6875 2.80962ZM29.7695 13.9922L4.71289 0.187547L4.69727 0.178758C4.26562 -0.055617 3.85547 0.528367 4.20898 0.868211L23.8506 19.6495L29.7695 13.9922ZM4.21094 43.1319C3.85547 43.4717 4.26563 44.0557 4.69922 43.8213L4.71484 43.8125L29.7695 30.0079L23.8506 24.3487L4.21094 43.1319ZM39.8848 19.5586L32.8877 15.7051L26.3086 22L32.8877 28.292L39.8848 24.4415C41.7881 23.3897 41.7881 20.6104 39.8848 19.5586Z" fill="#22C38F"/>
</svg>
