<svg width="24" height="25" viewBox="0 0 24 25" fill="none" xmlns="http://www.w3.org/2000/svg">
<path d="M17.5019 5.10883L17.5017 5.10868L15.7717 4.11868L15.7643 4.11448L15.7644 4.11442C15.222 3.79175 14.5063 3.97747 14.1711 4.53804L14.0638 4.72338C14.0636 4.72367 14.0634 4.72397 14.0633 4.72427C13.56 5.60178 12.8258 6.15221 11.9888 6.15221C11.1522 6.15221 10.4157 5.60232 9.90741 4.72545L9.90729 4.72523L9.79729 4.53523L9.79553 4.53219L9.79554 4.53219C9.48218 3.98207 8.77192 3.78942 8.22565 4.11442L8.21837 4.11874L8.21834 4.11868L6.48834 5.10868L6.48807 5.10883C5.82207 5.4894 5.58942 6.35124 5.97313 7.02491C6.48124 7.89712 6.59087 8.80637 6.17295 9.52982C5.75511 10.2531 4.91145 10.6147 3.9 10.6147C3.13443 10.6147 2.5 11.2426 2.5 12.0147V13.7747C2.5 14.5403 3.12785 15.1747 3.9 15.1747C4.91153 15.1747 5.75545 15.5364 6.17321 16.2613C6.59079 16.9859 6.48109 17.8973 5.97345 18.774C5.58991 19.4466 5.8208 20.2993 6.48807 20.6806L6.48834 20.6807L8.21834 21.6707L8.22568 21.6749L8.22565 21.675C8.768 21.9977 9.48373 21.812 9.8189 21.2514L9.92622 21.066C9.92639 21.0657 9.92657 21.0654 9.92674 21.0651C10.4301 20.1876 11.1642 19.6372 12.0012 19.6372C12.8378 19.6372 13.5743 20.1871 14.0826 21.064L14.0827 21.0642L14.1911 21.2514C14.5263 21.812 15.242 21.9977 15.7844 21.675L15.7916 21.6707L15.7917 21.6707L17.5217 20.6807L17.5219 20.6806C18.1902 20.2987 18.4191 19.4361 18.0371 18.7748L17.5019 5.10883ZM17.5019 5.10883C18.1696 5.49035 18.4004 6.34381 18.0159 7.01664M17.5019 5.10883L18.0159 7.01664M18.0159 7.01664C17.5131 7.89399 17.4072 8.80522 17.826 9.5289M18.0159 7.01664L17.826 9.5289M17.826 9.5289C18.245 10.2529 19.0881 10.6147 20.1 10.6147M17.826 9.5289L20.1 10.6147M20.1 10.6147C20.8705 10.6147 21.5014 11.248 21.51 12.0173L20.1 10.6147Z" fill="#5347C2" stroke="#5347C2"/>
<path d="M8.75 12.8948C8.75 14.6848 10.21 16.1448 12 16.1448C13.79 16.1448 15.25 14.6848 15.25 12.8948C15.25 11.1048 13.79 9.64478 12 9.64478C10.21 9.64478 8.75 11.1048 8.75 12.8948Z" fill="white"/>
</svg>
