<svg width="24" height="25" viewBox="0 0 24 25" fill="none" xmlns="http://www.w3.org/2000/svg">
<path d="M17.5019 5.10889L17.5017 5.10874L15.7717 4.11874L15.7643 4.11454L15.7644 4.11448C15.222 3.79181 14.5063 3.97753 14.1711 4.5381L14.0638 4.72344C14.0636 4.72373 14.0634 4.72403 14.0633 4.72433C13.56 5.60184 12.8258 6.15227 11.9888 6.15227C11.1522 6.15227 10.4157 5.60238 9.90741 4.72551L9.90729 4.72529L9.79729 4.53529L9.79553 4.53226L9.79554 4.53225C9.48218 3.98213 8.77192 3.78948 8.22565 4.11448L8.21837 4.1188L8.21834 4.11874L6.48834 5.10874L6.48807 5.10889C5.82207 5.48947 5.58942 6.3513 5.97313 7.02497C6.48124 7.89718 6.59087 8.80643 6.17295 9.52988C5.75511 10.2532 4.91145 10.6148 3.9 10.6148C3.13443 10.6148 2.5 11.2426 2.5 12.0148V13.7748C2.5 14.5403 3.12785 15.1748 3.9 15.1748C4.91153 15.1748 5.75545 15.5364 6.17321 16.2614C6.59079 16.986 6.48109 17.8974 5.97345 18.774C5.58991 19.4467 5.8208 20.2994 6.48807 20.6807L6.48834 20.6808L8.21834 21.6708L8.22568 21.675L8.22565 21.6751C8.768 21.9977 9.48373 21.812 9.8189 21.2515L9.92622 21.0661C9.92639 21.0658 9.92657 21.0655 9.92674 21.0652C10.4301 20.1877 11.1642 19.6373 12.0012 19.6373C12.8378 19.6373 13.5743 20.1872 14.0826 21.064L14.0827 21.0643L14.1911 21.2515C14.5263 21.812 15.242 21.9977 15.7844 21.6751L15.7916 21.6707L15.7917 21.6708L17.5217 20.6808L17.5219 20.6807C18.1902 20.2988 18.4191 19.4362 18.0371 18.7749L17.5019 5.10889ZM17.5019 5.10889C18.1696 5.49041 18.4004 6.34387 18.0159 7.0167M17.5019 5.10889L18.0159 7.0167M18.0159 7.0167C17.5131 7.89405 17.4072 8.80528 17.826 9.52896M18.0159 7.0167L17.826 9.52896M17.826 9.52896C18.245 10.253 19.0881 10.6148 20.1 10.6148M17.826 9.52896L20.1 10.6148M20.1 10.6148C20.8705 10.6148 21.5014 11.2481 21.51 12.0174L20.1 10.6148Z" fill="#5347C2" stroke="#5347C2"/>
<path d="M8.75 12.8948C8.75 14.6848 10.21 16.1448 12 16.1448C13.79 16.1448 15.25 14.6848 15.25 12.8948C15.25 11.1048 13.79 9.64478 12 9.64478C10.21 9.64478 8.75 11.1048 8.75 12.8948Z" fill="white"/>
</svg>
