<svg width="24" height="24" viewBox="0 0 24 24" fill="none" xmlns="http://www.w3.org/2000/svg">
<path d="M12 2C6.49 2 2 6.49 2 12C2 17.51 6.49 22 12 22C17.51 22 22 17.51 22 12C22 6.49 17.51 2 12 2Z" fill="#22C38F"/>
<path d="M10.9315 16.0446L17.739 9.23715C18.0872 8.87697 18.0872 8.31268 17.739 7.9645C17.3908 7.61632 16.8145 7.61632 16.4663 7.9645L10.2952 14.1356L7.53378 11.3742C7.1856 11.0261 6.60931 11.0261 6.26113 11.3742C5.91296 11.7224 5.91296 12.2987 6.26113 12.6469L9.65886 16.0446C9.82695 16.2127 10.0551 16.3088 10.2952 16.3088C10.5353 16.3088 10.7634 16.2127 10.9315 16.0446Z" fill="white"/>
</svg>
