<svg width="191" height="173" viewBox="0 0 191 173" fill="none" xmlns="http://www.w3.org/2000/svg">
<path d="M1 123.103C8.875 126.373 28.904 129.867 29.875 111.51C31.0884 88.5714 9.42493 105.262 26.375 113.294C43.3251 121.325 46.5 105.268 46.5 105.268" stroke="#9E93E6" stroke-width="2" stroke-linecap="round"/>
<path d="M161.125 37.4534C166.375 37.4534 177.225 34.4215 178.625 22.2936C180.375 7.13383 188.25 7.13383 190 8.02558" stroke="#9E93E6" stroke-width="2" stroke-linecap="round" stroke-linejoin="round"/>
<path d="M151.5 140.897C156.167 141.491 165.675 146.069 166.375 159.624" stroke="#F4C36D" stroke-width="2" stroke-linecap="round" stroke-linejoin="round"/>
<ellipse cx="176.875" cy="81.1495" rx="6.125" ry="6.24227" fill="#76D2FD"/>
<ellipse cx="126.125" cy="166.758" rx="6.125" ry="6.24227" fill="#FF99B9"/>
<ellipse cx="110.375" cy="161.407" rx="2.625" ry="2.67526" fill="#70C043"/>
<ellipse cx="52.625" cy="148.923" rx="6.125" ry="6.24227" fill="#70C043"/>
<ellipse cx="40.375" cy="61.5308" rx="6.125" ry="6.24227" fill="#F4C36D"/>
<ellipse cx="91.125" cy="6.24227" rx="6.125" ry="6.24227" fill="#C05DFE"/>
<ellipse cx="108.625" cy="16.9433" rx="2.625" ry="2.67526" fill="#F8C264"/>
</svg>
