<svg width="32" height="33" viewBox="0 0 32 33" fill="none" xmlns="http://www.w3.org/2000/svg">
<path d="M32 4.27079C30.8017 4.92102 29.5307 5.34782 28.2292 5.53701C29.5849 4.5418 30.6257 2.96584 31.1159 1.0881C29.8272 2.0248 28.4173 2.68477 26.947 3.03948C25.7494 1.47669 24.0432 0.5 22.1549 0.5C18.5291 0.5 15.5895 4.10054 15.5895 8.54134C15.5895 9.17169 15.6476 9.78536 15.7595 10.3741C10.3032 10.0386 5.46575 6.83722 2.22762 1.972C1.66262 3.15967 1.33888 4.54119 1.33888 6.01472C1.33888 8.80469 2.498 11.2659 4.2595 12.7081C3.21694 12.6681 2.19731 12.3232 1.28575 11.7021C1.28537 11.7358 1.28537 11.7695 1.28537 11.8033C1.28537 15.6995 3.54837 18.9498 6.55162 19.6885C5.58486 20.0106 4.57079 20.0577 3.58687 19.8263C4.42225 23.0211 6.84688 25.3459 9.71963 25.411C7.47275 27.5677 4.64188 28.8534 1.56613 28.8534C1.03613 28.8534 0.513625 28.8153 0 28.741C2.90538 31.0226 6.35625 32.3539 10.0638 32.3539C22.1396 32.3539 28.743 20.1004 28.743 9.47393C28.743 9.12515 28.7368 8.77835 28.724 8.43355C30.0093 7.29546 31.1186 5.88582 32 4.27079Z" fill="#1591EF"/>
</svg>
