<svg width="27" height="22" viewBox="0 0 27 22" fill="none" xmlns="http://www.w3.org/2000/svg">
<path d="M13.6587 0.5C14.3707 0.504 16.152 0.521333 18.0453 0.597333L18.7173 0.626666C20.6227 0.716 22.5267 0.870667 23.472 1.13333C24.732 1.488 25.7213 2.52 26.056 3.82933C26.5893 5.90933 26.656 9.96533 26.664 10.948L26.6653 11.1507V11.3827C26.656 12.3653 26.5893 16.4227 26.056 18.5013C25.7173 19.8147 24.7267 20.848 23.472 21.1973C22.5267 21.46 20.6227 21.6147 18.7173 21.704L18.0453 21.7347C16.152 21.8093 14.3707 21.828 13.6587 21.8307L13.3453 21.832H13.0053C11.4987 21.8227 5.19733 21.7547 3.192 21.1973C1.93333 20.8427 0.942667 19.8107 0.608 18.5013C0.0746668 16.4213 0.008 12.3653 0 11.3827V10.948C0.008 9.96533 0.0746668 5.908 0.608 3.82933C0.946667 2.516 1.93733 1.48267 3.19333 1.13467C5.19733 0.576 11.5 0.508 13.0067 0.5H13.6587ZM10.6653 6.5V15.8333L18.6653 11.1667L10.6653 6.5Z" fill="#F20000"/>
</svg>
